# Blender 4.5.11 LTS
# www.blender.org
mtllib Big4.mtl
o Cube.001
v -0.424347 0.065060 -1.322900
v -0.429110 0.653683 -1.299543
v 0.424347 0.065060 -1.322900
v 0.429110 0.653683 -1.299543
v 0.727172 0.065202 -0.828427
v 0.634719 0.671427 -0.829408
v 0.727694 0.065278 0.381223
v 0.642887 0.672625 0.376783
v 0.302290 0.065350 0.701692
v 0.313921 0.450913 0.671057
v -0.302290 0.065350 0.701692
v -0.313921 0.450913 0.671057
v -0.727694 0.065278 0.381223
v -0.642887 0.672625 0.376784
v -0.727172 0.065202 -0.828426
v -0.634719 0.671427 -0.829408
v 0.000565 0.133231 -2.235118
v 0.000565 0.088303 -1.337129
v 0.159717 0.199151 -2.235118
v 0.191485 0.167383 -1.337129
v 0.225637 0.358303 -2.235118
v 0.270565 0.358303 -1.337129
v 0.159717 0.517454 -2.235118
v 0.191485 0.549223 -1.337129
v 0.000565 0.583377 -2.235118
v 0.000565 0.628303 -1.337129
v -0.158586 0.517454 -2.235118
v -0.190354 0.549223 -1.337129
v -0.224507 0.358303 -2.235118
v -0.269435 0.358303 -1.337129
v -0.158586 0.199151 -2.235118
v -0.190354 0.167383 -1.337129
v -0.073345 0.118917 -2.155118
v 0.222099 0.241294 -2.155118
v 0.239951 0.432213 -2.155118
v 0.117574 0.579837 -2.155118
v -0.073345 0.597688 -2.155118
v -0.220969 0.475312 -2.155118
v -0.238821 0.284392 -2.155118
v -0.116444 0.136769 -2.155118
v 0.000563 0.133231 -1.335355
v 0.159714 0.199151 -1.335355
v 0.225635 0.358303 -1.335355
v 0.159714 0.517455 -1.335355
v 0.000563 0.583378 -1.335355
v -0.158589 0.517455 -1.335355
v -0.224509 0.358303 -1.335355
v -0.158589 0.199151 -1.335355
v -0.073345 0.118917 -1.487028
v 0.222099 0.241294 -1.487028
v 0.239951 0.432214 -1.487028
v 0.117574 0.579837 -1.487028
v -0.073345 0.597689 -1.487028
v -0.220969 0.475312 -1.487028
v -0.238821 0.284392 -1.487028
v -0.116444 0.136769 -1.487028
v 0.000565 0.026370 -1.337129
v 0.235279 0.123589 -1.337129
v 0.332498 0.358303 -1.337129
v 0.235279 0.593017 -1.337129
v 0.000565 0.690236 -1.337129
v -0.234148 0.593017 -1.337129
v -0.331367 0.358303 -1.337129
v -0.234148 0.123589 -1.337129
v 0.000565 0.026370 -1.407028
v 0.235279 0.123589 -1.407028
v 0.332498 0.358303 -1.407028
v 0.235279 0.593017 -1.407028
v 0.000565 0.690236 -1.407028
v -0.234148 0.593017 -1.407028
v -0.331367 0.358303 -1.407028
v -0.234148 0.123589 -1.407028
v -0.403382 0.015438 -1.370609
v -0.370789 0.703553 -1.290458
v 0.403382 0.015438 -1.370609
v 0.370789 0.703553 -1.290458
v 0.732429 0.015438 -0.829413
v 0.578947 0.721517 -0.818882
v 0.732429 0.015438 0.382683
v 0.578947 0.732529 0.367478
v 0.303382 0.015437 0.704642
v 0.280931 0.531289 0.635575
v -0.303382 0.015437 0.704642
v -0.280931 0.531289 0.635575
v -0.732429 0.015438 0.382683
v -0.578947 0.732529 0.367479
v -0.578947 0.721517 -0.818882
v -0.732429 0.015438 -0.829412
v 0.786304 0.072120 -0.820969
v 0.693851 0.678345 -0.821950
v 0.786825 0.072196 0.388681
v 0.702018 0.679543 0.384240
v 0.361421 0.072268 0.709150
v 0.373052 0.457831 0.678515
v 0.483478 0.071978 -1.315442
v 0.488242 0.660601 -1.292085
v -0.361421 0.072268 0.709150
v -0.373052 0.457831 0.678515
v -0.786825 0.072196 0.388681
v -0.702018 0.679543 0.384241
v -0.786304 0.072120 -0.820968
v -0.693851 0.678345 -0.821950
v -0.483478 0.071978 -1.315442
v -0.488242 0.660601 -1.292085
v 0.302290 0.070264 0.761491
v 0.313921 0.455828 0.730856
v -0.302290 0.070264 0.761491
v -0.313921 0.455828 0.730856
v 0.361421 0.077182 0.768949
v 0.373052 0.462746 0.738314
v -0.361421 0.077182 0.768949
v -0.373052 0.462746 0.738314
v -0.403382 0.701649 -1.340422
v 0.403382 0.701649 -1.340422
v 0.628947 0.721116 -0.829412
v 0.628947 0.721116 0.382683
v 0.303382 0.501273 0.675563
v -0.303382 0.501273 0.675563
v -0.628947 0.721116 0.382684
v -0.628947 0.721116 -0.829412
v 0.578947 0.780379 -0.807253
v -0.578947 0.780379 -0.807253
v 0.578947 0.791391 0.379107
v -0.578947 0.791391 0.379108
v -0.370789 0.762415 -1.278829
v 0.370789 0.762415 -1.278829
v 0.280931 0.590151 0.647204
v -0.280931 0.590151 0.647204
v 0.074476 0.118917 -1.487028
v -0.220969 0.241294 -1.487028
v 0.074476 0.118917 -2.155118
v -0.220969 0.241294 -2.155118
v -0.238821 0.432214 -1.487028
v -0.190354 0.167383 -1.407028
v -0.238821 0.432213 -2.155118
v -0.190354 0.167383 -2.235118
v -0.116444 0.579837 -1.487028
v -0.269435 0.358303 -1.407028
v -0.116444 0.579837 -2.155118
v -0.269435 0.358303 -2.235118
v 0.074476 0.597688 -2.155118
v -0.190354 0.549222 -2.235118
v -0.190354 0.549223 -1.407028
v 0.074476 0.597689 -1.487028
v 0.222099 0.475312 -2.155118
v 0.000565 0.628303 -2.235118
v 0.000565 0.628303 -1.407028
v 0.222099 0.475312 -1.487028
v 0.239951 0.284392 -2.155118
v 0.191485 0.549222 -2.235118
v 0.191485 0.549223 -1.407028
v 0.239951 0.284392 -1.487028
v 0.117574 0.136769 -2.155118
v 0.270565 0.358303 -2.235118
v 0.270565 0.358303 -1.407028
v 0.117574 0.136769 -1.487028
v 0.000565 0.088303 -1.407028
v 0.191485 0.167383 -1.407028
v 0.000565 0.088303 -2.235118
v 0.191485 0.167383 -2.235118
v 0.000565 0.088303 -1.407028
v 0.191485 0.167383 -1.407028
v 0.000565 0.088303 -2.235118
v 0.191485 0.167383 -2.235118
v 0.125228 0.598314 -2.155118
v 0.082129 0.616166 -2.155118
v 0.082129 0.616166 -1.487028
v 0.125228 0.598315 -1.487028
v -0.073345 0.597688 -2.155118
v -0.116444 0.579837 -2.155118
v -0.116444 0.579837 -1.487028
v -0.073345 0.597689 -1.487028
v -0.080999 0.616166 -2.155118
v -0.124098 0.598314 -2.155118
v -0.124098 0.598315 -1.487028
v -0.080999 0.616166 -1.487028
v 0.258429 0.439867 -2.155118
v 0.240577 0.482965 -2.155118
v 0.240577 0.482966 -1.487028
v 0.258429 0.439867 -1.487028
v 0.240577 0.233640 -2.155118
v 0.258429 0.276739 -2.155118
v 0.258429 0.276739 -1.487028
v 0.240577 0.233640 -1.487028
v 0.082129 0.100440 -1.487028
v 0.125228 0.118291 -1.487028
v 0.082129 0.100439 -2.155118
v 0.125228 0.118291 -2.155118
v -0.080999 0.100440 -1.487028
v -0.124098 0.118291 -1.487028
v -0.080999 0.100439 -2.155118
v -0.124098 0.118291 -2.155118
v -0.257298 0.276739 -1.487028
v -0.239446 0.233640 -1.487028
v -0.257298 0.276739 -2.155118
v -0.239446 0.233640 -2.155118
v -0.239446 0.482966 -1.487028
v -0.257298 0.439867 -1.487028
v -0.239446 0.482965 -2.155118
v -0.257298 0.439867 -2.155118
v 0.000565 0.123489 -2.235118
v 0.166605 0.192263 -2.235118
v 0.000565 0.098044 -2.235118
v 0.184597 0.174271 -2.235118
v 0.235379 0.358303 -2.235118
v 0.260824 0.358303 -2.235118
v 0.166605 0.524342 -2.235118
v 0.184597 0.542334 -2.235118
v 0.000565 0.593119 -2.235118
v 0.000565 0.618561 -2.235118
v -0.165475 0.524342 -2.235118
v -0.183466 0.542334 -2.235118
v -0.234248 0.358303 -2.235118
v -0.259693 0.358303 -2.235118
v -0.165475 0.192263 -2.235118
v -0.183466 0.174271 -2.235118
v 0.166605 0.192263 -2.285118
v 0.184597 0.174271 -2.285118
v 0.000565 0.123489 -2.285118
v 0.000565 0.098044 -2.285118
v 0.235379 0.358303 -2.285118
v 0.260824 0.358303 -2.285118
v 0.166605 0.524342 -2.285118
v 0.184597 0.542334 -2.285118
v 0.000565 0.593119 -2.285118
v 0.000565 0.618561 -2.285118
v -0.165475 0.524342 -2.285118
v -0.183466 0.542334 -2.285118
v -0.234248 0.358303 -2.285118
v -0.259693 0.358303 -2.285118
v -0.165475 0.192263 -2.285118
v -0.183466 0.174271 -2.285118
vn -0.0000 0.0439 -0.9990
vn 0.1162 -0.9932 -0.0000
vn 0.1033 -0.9897 0.0990
vn 0.0988 -0.9864 0.1314
vn 0.4357 -0.8946 0.0997
vn 0.1648 -0.4802 -0.8615
vn 0.0416 0.5461 -0.8367
vn -0.0291 0.8374 -0.5459
vn 0.1685 -0.7461 -0.6441
vn 0.2669 0.9329 0.2418
vn 0.5245 0.6416 0.5596
vn 0.5548 -0.4936 0.6697
vn -0.1648 -0.4802 -0.8615
vn -0.1254 -0.9892 -0.0765
vn -0.1685 -0.7461 -0.6441
vn -0.7118 -0.1361 0.6891
vn -0.3400 -0.1823 0.9226
vn -0.4221 -0.1757 0.8893
vn -0.0988 -0.9864 0.1314
vn -0.1033 -0.9897 0.0990
vn -0.4357 -0.8946 0.0997
vn 0.1179 0.9929 0.0141
vn -0.0416 0.5461 -0.8367
vn 0.0291 0.8374 -0.5458
vn -0.0000 -1.0000 -0.0000
vn -1.0000 -0.0000 -0.0000
vn 0.5018 0.1676 -0.8486
vn -0.5018 0.1676 -0.8486
vn -0.5757 0.1585 -0.8021
vn 0.5757 0.1585 -0.8021
vn -0.0000 -0.0000 1.0000
vn -0.0000 -0.0000 -1.0000
vn -0.7071 -0.7071 -0.0000
vn 0.5490 -0.5490 0.6302
vn -0.0000 -0.7764 0.6303
vn -0.0000 -0.5944 0.8042
vn 0.4203 -0.4203 0.8042
vn 0.5490 0.5490 0.6302
vn 0.7764 -0.0000 0.6303
vn 0.5944 -0.0000 0.8042
vn 0.4203 0.4203 0.8042
vn 1.0000 -0.0000 -0.0000
vn 0.7071 0.7071 -0.0000
vn -0.5490 -0.5490 0.6302
vn -0.4203 -0.4203 0.8042
vn -0.5490 0.5490 0.6302
vn -0.0000 0.7764 0.6302
vn -0.0000 0.5944 0.8042
vn -0.4203 0.4203 0.8042
vn 0.7071 -0.7071 -0.0000
vn 0.6533 -0.2706 0.7071
vn 0.6533 -0.2706 -0.7071
vn 0.2706 -0.6533 0.7071
vn 0.2706 -0.6533 -0.7071
vn -0.2706 -0.6533 0.7071
vn -0.2706 -0.6533 -0.7071
vn -0.0000 -0.0000 -0.0000
vn -0.6533 0.2706 0.7071
vn -0.6533 0.2706 -0.7071
vn -0.2706 0.6533 0.7071
vn 0.2706 0.6533 0.7071
vn -0.6533 -0.2706 -0.7071
vn -0.6533 -0.2706 0.7071
vn -0.3827 0.9239 -0.0000
vn -0.9239 0.3827 -0.0000
vn -0.9239 -0.3827 -0.0000
vn -0.3827 -0.9239 -0.0000
vn 0.3827 -0.9239 -0.0000
vn 0.9239 -0.3827 -0.0000
vn 0.9239 0.3827 -0.0000
vn 0.3827 0.9239 -0.0000
vn -0.8676 0.0680 -0.4927
vn -0.8974 0.0701 -0.4357
vn -0.8974 0.0702 -0.4357
vn -0.8675 0.0680 -0.4927
vn 0.8974 0.0701 -0.4357
vn 0.8676 0.0680 -0.4927
vn 0.8675 0.0680 -0.4927
vn 0.8974 0.0702 -0.4357
vn 0.9561 0.1139 -0.2701
vn 0.9570 0.1137 -0.2670
vn 0.9645 0.1640 -0.2070
vn 0.9642 0.1638 -0.2086
vn 0.8884 0.0948 0.4491
vn 0.8925 0.0951 0.4409
vn 0.8903 0.1502 0.4300
vn 0.8978 0.1528 0.4131
vn 0.3156 0.0681 0.9465
vn 0.3163 0.0681 0.9462
vn 0.3336 -0.0081 0.9427
vn 0.3440 -0.0054 0.9390
vn -0.3156 0.0681 0.9465
vn -0.3163 0.0681 0.9462
vn -0.3336 -0.0081 0.9427
vn -0.3439 -0.0054 0.9390
vn -0.8884 0.0948 0.4491
vn -0.8925 0.0951 0.4409
vn -0.8903 0.1502 0.4300
vn -0.8978 0.1528 0.4131
vn -0.9645 0.1640 -0.2070
vn -0.9642 0.1638 -0.2086
vn -0.9561 0.1139 -0.2701
vn -0.9570 0.1137 -0.2670
vn 0.8817 0.0734 -0.4661
vn 0.9895 0.1445 -0.0036
vn 0.6170 0.0732 0.7835
vn 0.1254 -0.9892 -0.0765
vn -0.1319 0.9820 0.1349
vn -0.1683 0.7530 0.6361
vn -0.1610 0.8664 0.4728
vn -0.1162 0.9932 -0.0002
vn -0.1179 0.9929 0.0141
vn -0.6170 0.0732 0.7835
vn -0.9895 0.1445 -0.0036
vn -0.8817 0.0734 -0.4661
vn -0.1162 -0.9932 -0.0000
vn 0.1319 0.9820 0.1349
vn 0.1610 0.8664 0.4728
vn -0.2669 0.9329 0.2418
vn 0.1162 0.9932 -0.0002
vn 0.0057 -0.7103 0.7039
vn -0.5548 -0.4936 0.6697
vn -0.0000 0.0792 0.9969
vn -0.0057 -0.7103 0.7039
vn 0.1683 0.7530 0.6361
vn -0.5245 0.6416 0.5596
vn -0.0000 -0.9966 0.0819
vn -0.0000 0.9966 -0.0819
vn -0.0000 0.9993 -0.0381
vn 0.0589 0.9980 -0.0214
vn 0.0608 0.9450 0.3212
vn 0.0640 0.9502 0.3051
vn -0.0000 0.7998 0.6003
vn -0.0608 0.9450 0.3212
vn -0.0640 0.9502 0.3051
vn -0.0589 0.9980 -0.0214
vn -0.0000 1.0000 -0.0093
vn 0.3400 -0.1823 0.9226
vn 0.7118 -0.1361 0.6891
vn 0.4221 -0.1757 0.8893
vn 0.9108 0.0800 -0.4051
vn -0.9108 0.0800 -0.4051
vn 0.6533 0.2706 -0.7071
vn 0.6533 0.2706 0.7071
vn -0.2706 0.6533 -0.7071
vn 0.2706 0.6533 -0.7071
vn -0.7764 -0.0000 0.6303
vn -0.5944 -0.0000 0.8042
vn -0.0000 1.0000 -0.0000
vn -0.7071 0.7071 -0.0000
vt 1.000000 0.500000
vt 1.000000 1.000000
vt 0.875000 1.000000
vt 0.875000 0.500000
vt 0.625712 0.535011
vt 0.749898 0.535052
vt 0.499775 0.551366
vt 0.864882 0.536199
vt 0.864040 0.963776
vt 0.502171 0.948634
vt 0.010118 0.536199
vt 0.125372 0.535179
vt 0.264150 1.000000
vt 0.375388 1.000000
vt 0.249849 0.535052
vt 0.375218 0.551527
vt 0.125000 0.964948
vt 0.010960 0.963776
vt 0.750000 0.490000
vt 0.919706 0.419706
vt 0.990000 0.250000
vt 0.919706 0.080294
vt 0.750000 0.010000
vt 0.580294 0.080294
vt 0.510000 0.250000
vt 0.580294 0.419706
vt 0.150338 1.000000
vt 0.817232 1.000000
vt 0.057768 1.000000
vt 0.250000 0.975000
vt 0.375000 0.975000
vt 0.125000 0.975000
vt 0.010000 0.250000
vt 0.080294 0.419706
vt 0.419706 0.419706
vt 0.490000 0.250000
vt 0.000000 0.975000
vt 0.250000 0.490000
vt 0.080294 0.080294
vt 0.250000 0.010000
vt 0.419706 0.080294
vt 0.875000 0.975000
vt 1.000000 0.975000
vt 0.913583 0.086417
vt 0.750000 0.018659
vt 0.897590 0.397590
vt 0.750000 0.458724
vt 0.897590 0.102410
vt 0.958724 0.250000
vt 0.518659 0.250000
vt 0.586417 0.413583
vt 0.602410 0.397590
vt 0.981341 0.250000
vt 0.602410 0.102410
vt 0.750000 0.041276
vt 0.586417 0.086417
vt 0.750000 0.450065
vt 0.891467 0.391467
vt 0.950065 0.250000
vt 0.891467 0.108533
vt 0.750000 0.049935
vt 0.608533 0.108533
vt 0.549935 0.250000
vt 0.608533 0.391467
vt 0.076609 0.545889
vt 0.076609 0.929111
vt 0.201609 0.545889
vt 0.201609 0.929111
vt 0.326609 0.545889
vt 0.326609 0.929111
vt 0.451609 0.929111
vt 0.423391 0.929111
vt 0.576609 0.545889
vt 0.576609 0.929111
vt 0.673391 0.545889
vt 0.701609 0.545889
vt 0.798391 0.545889
vt 0.826609 0.545889
vt 0.923391 0.929111
vt 0.923391 0.545889
vt 0.750000 1.000000
vt 0.750000 0.975000
vt 0.625000 1.000000
vt 0.625000 0.975000
vt 0.500000 1.000000
vt 0.500000 0.975000
vt 0.375000 1.000000
vt 0.250000 1.000000
vt 0.125000 1.000000
vt 0.000000 1.000000
vt 0.000000 0.500000
vt 0.750000 0.500000
vt 0.750000 0.964948
vt 0.625000 0.500000
vt 0.627353 0.963394
vt 0.500000 0.500000
vt 0.375000 0.500000
vt 0.371569 0.944352
vt 0.250000 0.500000
vt 0.249392 0.964948
vt 0.125000 0.500000
vt 0.724662 1.000000
vt 0.611169 1.000000
vt 0.499612 1.000000
vt 0.048391 0.929111
vt 0.048391 0.545889
vt 0.173391 0.929111
vt 0.173391 0.545889
vt 0.298391 0.929111
vt 0.298391 0.545889
vt 0.451609 0.545889
vt 0.423391 0.545889
vt 0.548391 0.545889
vt 0.548391 0.929111
vt 0.673391 0.929111
vt 0.701609 0.929111
vt 0.798391 0.929111
vt 0.826609 0.929111
vt 0.951609 0.929111
vt 0.951609 0.545889
vt 0.913583 0.413583
vt 0.750000 0.481341
vt 0.541276 0.250000
s 1
usemtl Material.002
f 73/1/1 113/2/1 114/3/1 75/4/1
f 7/5/2 5/6/2 89/6/2 91/5/2
f 9/7/3 7/5/4 91/5/4 93/7/5
f 3/8/6 4/9/7 96/9/8 95/8/9
f 93/7/5 94/10/10 110/10/11 109/7/12
f 1/11/13 15/12/14 101/12/14 103/11/15
f 86/13/16 84/14/17 128/14/18 124/13/16
f 13/15/19 11/16/20 97/16/21 99/15/19
f 16/17/22 2/18/23 104/18/24 102/17/22
f 73/19/25 75/20/25 77/21/25 79/22/25 81/23/25 83/24/25 85/25/25 88/26/25
f 87/27/26 86/13/26 124/13/26 122/27/26
f 76/28/27 74/29/28 125/29/29 126/28/30
f 138/30/31 143/31/31 70/31/31 71/30/31
f 134/32/31 138/30/31 71/30/31 72/32/31
f 30/33/32 32/34/32 64/34/32 63/33/32
f 20/35/32 22/36/32 59/36/32 58/35/32
f 157/37/31 134/32/31 72/32/31 65/37/31
f 32/34/32 18/38/32 57/38/32 64/34/32
f 20/35/32 18/38/32 32/34/32 30/33/32 28/39/32 26/40/32 24/41/32 22/36/32
f 158/42/31 157/43/31 65/43/31 66/42/31
f 24/41/32 26/40/32 61/40/32 60/41/32
f 208/44/33 210/45/25 226/45/25 224/44/33
f 202/46/34 201/47/35 219/47/36 217/46/37
f 207/48/38 205/49/39 221/49/40 223/48/41
f 214/50/42 216/51/43 232/51/43 230/50/42
f 201/47/35 215/52/44 231/52/45 219/47/36
f 206/53/26 208/44/33 224/44/33 222/53/26
f 211/54/46 209/55/47 225/55/48 227/54/49
f 212/56/50 214/50/42 230/50/42 228/56/50
f 41/57/31 42/58/31 43/59/31 44/60/31 45/61/31 46/62/31 47/63/31 48/64/31
f 40/65/51 56/66/52 190/66/52 192/65/51
f 39/67/53 55/68/54 193/68/54 195/67/53
f 38/69/55 54/70/56 197/70/56 199/69/55
f 53/71/57 137/72/57 171/72/57 172/71/57
f 36/73/58 52/74/59 168/74/59 165/73/58
f 145/75/53 35/76/60 177/76/60 178/75/53
f 149/77/55 34/78/61 181/78/61 182/77/55
f 156/79/62 153/80/63 188/80/63 186/79/62
f 65/43/64 57/2/64 58/3/64 66/42/64
f 66/42/65 58/3/65 59/81/65 67/82/65
f 67/82/66 59/81/66 60/83/66 68/84/66
f 68/84/67 60/83/67 61/85/67 69/86/67
f 69/86/68 61/85/68 62/87/68 70/31/68
f 70/31/69 62/87/69 63/88/69 71/30/69
f 71/30/70 63/88/70 64/89/70 72/32/70
f 72/32/71 64/89/71 57/90/71 65/37/71
f 26/40/32 28/39/32 62/39/32 61/40/32
f 143/31/31 147/86/31 69/86/31 70/31/31
f 22/36/32 24/41/32 60/41/32 59/36/32
f 147/86/31 151/84/31 68/84/31 69/86/31
f 151/84/31 155/82/31 67/82/31 68/84/31
f 18/38/32 20/35/32 58/35/32 57/38/32
f 28/39/32 30/33/32 63/33/32 62/39/32
f 155/82/31 158/42/31 66/42/31 67/82/31
f 1/11/72 2/18/73 113/90/74 73/91/75
f 4/9/76 3/8/77 75/4/78 114/3/79
f 3/8/77 5/6/80 77/92/81 75/4/78
f 6/93/82 4/9/76 114/3/79 115/81/83
f 5/6/80 7/5/84 79/94/85 77/92/81
f 8/95/86 6/93/82 115/81/83 116/83/87
f 7/5/84 9/7/88 81/96/89 79/94/85
f 10/10/90 8/95/86 116/83/87 117/85/91
f 9/7/88 11/16/92 83/97/93 81/96/89
f 12/98/94 10/10/90 117/85/91 118/87/95
f 11/16/92 13/15/96 85/99/97 83/97/93
f 14/100/98 12/98/94 118/87/95 119/88/99
f 2/18/73 16/17/100 120/89/101 113/90/74
f 13/15/96 15/12/102 88/101/103 85/99/97
f 16/17/100 14/100/98 119/88/99 120/89/101
f 15/12/102 1/11/72 73/91/75 88/101/103
f 95/8/104 96/9/104 90/93/104 89/6/104
f 89/6/105 90/93/105 92/95/105 91/5/105
f 91/5/106 92/95/106 94/10/106 93/7/106
f 5/6/107 3/8/6 95/8/9 89/6/107
f 94/10/10 10/10/108 106/10/109 110/10/11
f 8/95/110 10/10/108 94/10/10 92/95/110
f 6/93/111 8/95/111 92/95/111 90/93/111
f 4/9/7 6/93/112 90/93/112 96/9/8
f 97/16/113 98/98/113 100/100/113 99/15/113
f 99/15/114 100/100/114 102/17/114 101/12/114
f 101/12/115 102/17/115 104/18/115 103/11/115
f 15/12/116 13/15/116 99/15/116 101/12/116
f 2/18/23 1/11/13 103/11/15 104/18/24
f 12/98/117 14/100/118 100/100/118 98/98/119
f 14/100/120 16/17/120 102/17/120 100/100/120
f 97/16/21 11/16/20 107/16/121 111/16/122
f 105/7/123 106/10/123 108/98/123 107/16/123
f 106/10/109 105/7/124 109/7/12 110/10/11
f 107/16/121 108/98/125 112/98/126 111/16/122
f 9/7/3 93/7/5 109/7/12 105/7/124
f 12/98/117 98/98/119 112/98/126 108/98/125
f 11/16/127 9/7/127 105/7/127 107/16/127
f 98/98/119 97/16/21 111/16/122 112/98/126
f 10/10/128 12/98/128 108/98/128 106/10/128
f 74/29/129 76/28/129 114/3/129 113/90/129
f 76/28/129 78/102/130 115/81/130 114/3/129
f 78/102/130 80/103/131 116/83/132 115/81/130
f 80/103/131 82/104/133 117/85/133 116/83/132
f 82/104/133 84/14/133 118/87/133 117/85/133
f 84/14/133 86/13/134 119/88/135 118/87/133
f 87/27/136 74/29/129 113/90/129 120/89/136
f 86/13/134 87/27/136 120/89/136 119/88/135
f 125/29/129 122/27/129 121/102/129 126/28/129
f 123/103/137 121/102/137 122/27/137 124/13/137
f 127/104/133 123/103/133 124/13/133 128/14/133
f 82/104/138 80/103/139 123/103/139 127/104/140
f 78/102/141 76/28/27 126/28/30 121/102/141
f 74/29/28 87/27/142 122/27/142 125/29/29
f 84/14/17 82/104/138 127/104/140 128/14/18
f 80/103/42 78/102/42 121/102/42 123/103/42
f 49/105/71 56/66/71 134/32/71 157/37/71
f 40/65/71 33/106/71 159/91/71 136/101/71
f 56/66/71 40/65/71 136/101/71 134/32/71
f 33/106/71 49/105/71 157/37/71 159/91/71
f 130/107/70 55/68/70 138/30/70 134/32/70
f 39/67/70 132/108/70 136/101/70 140/99/70
f 132/108/70 130/107/70 134/32/70 136/101/70
f 55/68/70 39/67/70 140/99/70 138/30/70
f 133/109/69 54/70/69 143/31/69 138/30/69
f 38/69/69 135/110/69 140/99/69 142/97/69
f 135/110/69 133/109/69 138/30/69 140/99/69
f 54/70/69 38/69/69 142/97/69 143/31/69
f 37/111/68 139/112/68 142/97/68 146/96/68
f 139/112/68 137/72/68 143/31/68 142/97/68
f 53/71/68 37/111/68 146/96/68 147/86/68
f 137/72/68 53/71/68 147/86/68 143/31/68
f 36/73/67 141/113/67 146/96/67 150/94/67
f 141/113/67 144/114/67 147/86/67 146/96/67
f 52/74/67 36/73/67 150/94/67 151/84/67
f 144/114/67 52/74/67 151/84/67 147/86/67
f 35/76/66 145/75/66 150/94/66 154/92/66
f 145/75/66 148/115/66 151/84/66 150/94/66
f 51/116/66 35/76/66 154/92/66 155/82/66
f 148/115/66 51/116/66 155/82/66 151/84/66
f 34/78/65 149/77/65 154/92/65 160/4/65
f 149/77/65 152/117/65 155/82/65 154/92/65
f 50/118/65 34/78/65 160/4/65 158/42/65
f 152/117/65 50/118/65 158/42/65 155/82/65
f 162/42/57 161/43/57 157/43/57 158/42/57
f 163/1/57 164/4/57 160/4/57 159/1/57
f 161/43/57 163/1/57 159/1/57 157/43/57
f 164/4/57 162/42/57 158/42/57 160/4/57
f 156/79/64 129/119/64 161/43/64 162/42/64
f 131/120/64 153/80/64 164/4/64 163/1/64
f 129/119/64 131/120/64 163/1/64 161/43/64
f 153/80/64 156/79/64 162/42/64 164/4/64
f 165/73/67 168/74/67 167/114/67 166/113/67
f 141/113/51 36/73/58 165/73/58 166/113/51
f 52/74/59 144/114/52 167/114/52 168/74/59
f 144/114/52 141/113/51 166/113/51 167/114/52
f 172/71/62 171/72/143 175/72/143 176/71/62
f 137/72/57 139/112/57 170/112/57 171/72/57
f 37/111/57 53/71/57 172/71/57 169/111/57
f 139/112/57 37/111/57 169/111/57 170/112/57
f 173/111/68 176/71/68 175/72/68 174/112/68
f 171/72/143 170/112/144 174/112/144 175/72/143
f 169/111/63 172/71/62 176/71/62 173/111/63
f 170/112/144 169/111/63 173/111/63 174/112/144
f 177/76/66 180/116/66 179/115/66 178/75/66
f 51/116/145 148/115/54 179/115/54 180/116/145
f 148/115/54 145/75/53 178/75/53 179/115/54
f 35/76/60 51/116/145 180/116/145 177/76/60
f 181/78/65 184/118/65 183/117/65 182/77/65
f 50/118/146 152/117/56 183/117/56 184/118/146
f 152/117/56 149/77/55 182/77/55 183/117/56
f 34/78/61 50/118/146 184/118/146 181/78/61
f 187/120/64 185/119/64 186/79/64 188/80/64
f 153/80/63 131/120/144 187/120/144 188/80/63
f 131/120/144 129/119/143 185/119/143 187/120/144
f 129/119/143 156/79/62 186/79/62 185/119/143
f 192/65/71 190/66/71 189/105/71 191/106/71
f 56/66/52 49/105/59 189/105/59 190/66/52
f 49/105/59 33/106/58 191/106/58 189/105/59
f 33/106/58 40/65/51 192/65/51 191/106/58
f 195/67/70 193/68/70 194/107/70 196/108/70
f 132/108/60 39/67/53 195/67/53 196/108/60
f 130/107/145 132/108/60 196/108/60 194/107/145
f 55/68/54 130/107/145 194/107/145 193/68/54
f 199/69/69 197/70/69 198/109/69 200/110/69
f 135/110/61 38/69/55 199/69/55 200/110/61
f 133/109/146 135/110/61 200/110/61 198/109/146
f 54/70/56 133/109/146 198/109/146 197/70/56
f 201/47/35 202/46/34 19/58/31 17/57/31
f 204/121/31 203/122/31 159/19/31 160/20/31
f 202/46/34 205/49/39 21/59/31 19/58/31
f 206/53/31 204/121/31 160/20/31 154/21/31
f 205/49/39 207/48/38 23/60/31 21/59/31
f 208/44/31 206/53/31 154/21/31 150/22/31
f 207/48/38 209/55/47 25/61/31 23/60/31
f 210/45/31 208/44/31 150/22/31 146/23/31
f 209/55/47 211/54/46 27/62/31 25/61/31
f 212/56/31 210/45/31 146/23/31 142/24/31
f 211/54/46 213/123/147 29/63/31 27/62/31
f 214/50/31 212/56/31 142/24/31 140/25/31
f 213/123/147 215/52/44 31/64/31 29/63/31
f 216/51/31 214/50/31 140/25/31 136/26/31
f 215/52/44 201/47/35 17/57/31 31/64/31
f 203/122/31 216/51/31 136/26/31 159/19/31
f 217/46/37 219/47/36 220/122/31 218/121/31
f 221/49/40 217/46/37 218/121/31 222/53/31
f 223/48/41 221/49/40 222/53/31 224/44/31
f 225/55/48 223/48/41 224/44/31 226/45/31
f 227/54/49 225/55/48 226/45/31 228/56/31
f 229/123/148 227/54/49 228/56/31 230/50/31
f 231/52/45 229/123/148 230/50/31 232/51/31
f 219/47/36 231/52/45 232/51/31 220/122/31
f 216/51/43 203/122/149 220/122/149 232/51/43
f 213/123/147 211/54/46 227/54/49 229/123/148
f 203/122/149 204/121/150 218/121/150 220/122/149
f 210/45/25 212/56/50 228/56/50 226/45/25
f 209/55/47 207/48/38 223/48/41 225/55/48
f 204/121/150 206/53/26 222/53/26 218/121/150
f 205/49/39 202/46/34 217/46/37 221/49/40
f 215/52/44 213/123/147 229/123/148 231/52/45
