# Blender 4.5.11 LTS
# www.blender.org
mtllib DefaultTurret.mtl
o Cube
v -0.911651 -0.248275 0.845923
v -0.911651 0.552308 0.845923
v -0.878266 -0.248275 -0.246275
v -0.878266 0.552308 -0.246275
v -0.313978 -0.248275 -1.156067
v -0.313978 0.552308 -1.156067
v 0.450660 -0.248275 -1.122682
v 0.450660 0.552308 -1.122682
v 0.967734 -0.248275 -0.165677
v 0.967734 0.552308 -0.165677
v 0.934350 -0.248275 0.926521
v 0.934350 0.552308 0.926521
v 0.370062 -0.248275 1.443595
v 0.370062 0.552308 1.443595
v -0.394576 -0.248275 1.410210
v -0.394576 0.552308 1.410210
v -0.878266 0.552308 -0.246275
v -0.911651 0.552308 0.845923
v -0.313978 0.552308 -1.156067
v 0.450660 0.552308 -1.122682
v 0.967734 0.552308 -0.165677
v 0.934350 0.552308 0.926521
v 0.370062 0.552308 1.443595
v -0.394576 0.552308 1.410210
v -0.878266 0.552308 -0.246275
v -0.911651 0.552308 0.845923
v -0.313978 0.552308 -1.156067
v 0.450660 0.552308 -1.122682
v 0.967734 0.552308 -0.165677
v 0.934350 0.552308 0.926521
v 0.370062 0.552308 1.443595
v -0.394576 0.552308 1.410210
v -0.911651 0.638695 0.845923
v -0.787465 0.761414 0.799801
v -0.875278 0.725470 0.832414
v -0.756612 0.761414 -0.209592
v -0.878266 0.638695 -0.246275
v -0.842634 0.725470 -0.235531
v -0.247558 0.761414 -1.030332
v -0.313978 0.638695 -1.156067
v -0.294524 0.725470 -1.119240
v 0.375777 0.761414 -1.003116
v 0.450660 0.638695 -1.122682
v 0.428727 0.725470 -1.087662
v 0.844064 0.761414 -0.136406
v 0.967734 0.638695 -0.165677
v 0.931512 0.725470 -0.157104
v 0.813271 0.761414 0.871021
v 0.934350 0.638695 0.926521
v 0.898887 0.725470 0.910265
v 0.324632 0.761414 1.318776
v 0.370062 0.638695 1.443595
v 0.356756 0.725470 1.407037
v -0.338440 0.761414 1.289826
v -0.394576 0.638695 1.410210
v -0.378134 0.725470 1.374951
v -0.151517 0.208413 -1.099503
v -0.114732 0.208413 -3.406384
v -0.113638 0.091832 -1.099503
v -0.083878 0.113454 -3.406384
v -0.014468 0.019781 -1.099503
v -0.003100 0.054765 -3.406384
v 0.108114 0.019781 -1.099503
v 0.096746 0.054765 -3.406384
v 0.207284 0.091832 -1.099503
v 0.177524 0.113454 -3.406384
v 0.245163 0.208413 -1.099503
v 0.208378 0.208413 -3.406384
v 0.207284 0.324995 -1.099503
v 0.177524 0.303373 -3.406384
v 0.108114 0.397046 -1.099503
v 0.096746 0.362061 -3.406384
v -0.014468 0.397046 -1.099503
v -0.003100 0.362061 -3.406384
v -0.113638 0.324995 -1.099503
v -0.083878 0.303373 -3.406384
v -0.113638 0.091832 -3.406384
v -0.151517 0.208413 -3.406384
v -0.014468 0.019781 -3.406384
v 0.108113 0.019781 -3.406384
v 0.207284 0.091832 -3.406384
v 0.245163 0.208413 -3.406384
v 0.207284 0.324995 -3.406384
v 0.108113 0.397046 -3.406384
v -0.014468 0.397046 -3.406384
v -0.113638 0.324995 -3.406384
v -0.083878 0.113454 -2.464178
v -0.114732 0.208413 -2.464178
v -0.003100 0.054765 -2.464178
v 0.096746 0.054765 -2.464178
v 0.177524 0.113454 -2.464178
v 0.208378 0.208413 -2.464178
v 0.177524 0.303373 -2.464178
v 0.096746 0.362061 -2.464178
v -0.003100 0.362061 -2.464178
v -0.083878 0.303373 -2.464178
v -0.083878 0.113454 -1.235938
v -0.114732 0.208413 -1.235938
v -0.003100 0.054765 -1.235938
v 0.096746 0.054765 -1.235938
v 0.177524 0.113454 -1.235938
v 0.208378 0.208413 -1.235938
v 0.177524 0.303373 -1.235938
v 0.096746 0.362061 -1.235938
v -0.003100 0.362061 -1.235938
v -0.083878 0.303373 -1.235938
v -0.083878 0.113454 -0.234095
v -0.114732 0.208413 -0.234095
v -0.003100 0.054765 -0.234095
v 0.096746 0.054765 -0.234095
v 0.177524 0.113454 -0.234095
v 0.208378 0.208413 -0.234095
v 0.177524 0.303373 -0.234095
v 0.096746 0.362061 -0.234095
v -0.003100 0.362061 -0.234095
v -0.083878 0.303373 -0.234095
v -0.083878 0.113454 -0.901911
v -0.114732 0.208413 -0.901911
v -0.003101 0.054765 -0.901911
v 0.096746 0.054765 -0.901911
v 0.177523 0.113454 -0.901911
v 0.208377 0.208413 -0.901911
v 0.177523 0.303373 -0.901911
v 0.096746 0.362061 -0.901911
v -0.003101 0.362061 -0.901911
v -0.083878 0.303373 -0.901911
vn -0.9995 -0.0000 -0.0306
vn -0.8498 -0.0000 -0.5271
vn 0.0436 -0.0000 -0.9990
vn 0.8798 -0.0000 -0.4754
vn 0.9995 -0.0000 0.0306
vn 0.6756 -0.0000 0.7373
vn -0.0436 -0.0000 0.9990
vn -0.7373 -0.0000 0.6756
vn -0.0000 -1.0000 -0.0000
vn -0.0000 1.0000 -0.0000
vn -0.9234 0.3827 -0.0282
vn -0.3825 0.9239 -0.0117
vn -0.7851 0.3827 -0.4870
vn -0.3252 0.9239 -0.2017
vn 0.0403 0.3827 -0.9230
vn 0.0167 0.9239 -0.3823
vn 0.8128 0.3827 -0.4392
vn 0.3367 0.9239 -0.1819
vn 0.9234 0.3827 0.0282
vn 0.3825 0.9239 0.0117
vn 0.6242 0.3827 0.6812
vn 0.2585 0.9239 0.2821
vn -0.0403 0.3827 0.9230
vn -0.0167 0.9239 0.3823
vn -0.6812 0.3827 0.6242
vn -0.2821 0.9239 0.2585
vn -0.9511 -0.3090 -0.0000
vn -0.5878 -0.8090 -0.0000
vn 0.5878 -0.8090 -0.0000
vn 0.9511 -0.3090 -0.0000
vn 0.9511 0.3090 -0.0000
vn 0.5878 0.8090 -0.0000
vn -0.5878 0.8090 -0.0000
vn -0.9511 0.3090 -0.0000
vn -0.0000 -0.0000 1.0000
vn -0.0000 -0.0000 -1.0000
vt 1.000000 0.500000
vt 1.000000 1.000000
vt 0.875000 1.000000
vt 0.875000 0.500000
vt 0.750000 1.000000
vt 0.750000 0.500000
vt 0.625000 1.000000
vt 0.625000 0.500000
vt 0.500000 1.000000
vt 0.500000 0.500000
vt 0.375000 1.000000
vt 0.375000 0.500000
vt 0.250000 1.000000
vt 0.250000 0.500000
vt 0.125000 1.000000
vt 0.125000 0.500000
vt 0.000000 1.000000
vt 0.000000 0.500000
vt 0.750000 0.490000
vt 0.919706 0.419706
vt 0.990000 0.250000
vt 0.919706 0.080294
vt 0.750000 0.010000
vt 0.580294 0.080294
vt 0.510000 0.250000
vt 0.580294 0.419706
vt 0.250000 0.490000
vt 0.419706 0.419706
vt 0.490000 0.250000
vt 0.419706 0.080294
vt 0.250000 0.010000
vt 0.080294 0.080294
vt 0.010000 0.250000
vt 0.080294 0.419706
vt 0.250000 0.490000
vt 0.250031 0.488897
vt 0.419257 0.419267
vt 0.242682 0.460946
vt 0.400888 0.395484
vt 0.490000 0.250000
vt 0.488394 0.250071
vt 0.466729 0.241506
vt 0.419706 0.080294
vt 0.418566 0.081334
vt 0.409406 0.103169
vt 0.249995 0.010624
vt 0.253249 0.040403
vt 0.081127 0.081081
vt 0.095310 0.105753
vt 0.010000 0.250000
vt 0.011367 0.250001
vt 0.038370 0.251277
vt 0.080294 0.419706
vt 0.081262 0.418739
vt 0.099316 0.398445
vt 0.900000 1.000000
vt 0.900000 0.500000
vt 0.800000 1.000000
vt 0.800000 0.500000
vt 0.700000 1.000000
vt 0.700000 0.500000
vt 0.600000 1.000000
vt 0.600000 0.500000
vt 0.500000 1.000000
vt 0.500000 0.500000
vt 0.400000 1.000000
vt 0.400000 0.500000
vt 0.300000 1.000000
vt 0.300000 0.500000
vt 0.200000 1.000000
vt 0.200000 0.500000
vt 0.135095 0.091847
vt 0.250000 0.054512
vt 0.100000 1.000000
vt 0.100000 0.500000
vt -0.000000 1.000000
vt -0.000000 0.500000
vt 0.891068 0.444164
vt 0.978254 0.324164
vt 0.978254 0.175836
vt 0.891068 0.055836
vt 0.608932 0.055836
vt 0.521746 0.175836
vt 0.521746 0.324164
vt 0.608932 0.444164
vt 0.250000 0.445488
vt 0.364905 0.408153
vt 0.391068 0.444164
vt 0.435920 0.310409
vt 0.478254 0.324164
vt 0.435920 0.189591
vt 0.478254 0.175836
vt 0.364905 0.091847
vt 0.391068 0.055836
vt 0.108932 0.055836
vt 0.064080 0.189591
vt 0.021746 0.175836
vt 0.064080 0.310409
vt 0.021746 0.324164
vt 0.135095 0.408153
vt 0.108932 0.444164
s 0
usemtl Material
f 1/1/1 18/2/1 17/3/1 3/4/1
f 3/4/2 17/3/2 19/5/2 5/6/2
f 5/6/3 19/5/3 20/7/3 7/8/3
f 7/8/4 20/7/4 21/9/4 9/10/4
f 9/10/5 21/9/5 22/11/5 11/12/5
f 11/12/6 22/11/6 23/13/6 13/14/6
f 13/14/7 23/13/7 24/15/7 15/16/7
f 15/16/8 24/15/8 18/17/8 1/18/8
f 1/19/9 3/20/9 5/21/9 7/22/9 9/23/9 11/24/9 13/25/9 15/26/9
f 26/27/10 25/28/10 17/28/10 18/27/10
f 25/28/10 27/29/10 19/29/10 17/28/10
f 27/29/10 28/30/10 20/30/10 19/29/10
f 28/30/10 29/31/10 21/31/10 20/30/10
f 29/31/10 30/32/10 22/32/10 21/31/10
f 30/32/10 31/33/10 23/33/10 22/32/10
f 31/33/10 32/34/10 24/34/10 23/33/10
f 32/34/10 26/27/10 18/27/10 24/34/10
f 2/27/10 4/28/10 25/28/10 26/27/10
f 4/28/10 6/29/10 27/29/10 25/28/10
f 6/29/10 8/30/10 28/30/10 27/29/10
f 8/30/10 10/31/10 29/31/10 28/30/10
f 10/31/10 12/32/10 30/32/10 29/31/10
f 12/32/10 14/33/10 31/33/10 30/32/10
f 14/33/10 16/34/10 32/34/10 31/33/10
f 16/34/10 2/27/10 26/27/10 32/34/10
f 37/28/11 33/35/11 35/36/11 38/37/11
f 38/37/12 35/36/12 34/38/12 36/39/12
f 40/40/13 37/28/13 38/37/13 41/41/13
f 41/41/14 38/37/14 36/39/14 39/42/14
f 43/43/15 40/40/15 41/41/15 44/44/15
f 44/44/16 41/41/16 39/42/16 42/45/16
f 46/31/17 43/43/17 44/44/17 47/46/17
f 47/46/18 44/44/18 42/45/18 45/47/18
f 49/32/19 46/31/19 47/46/19 50/48/19
f 50/48/20 47/46/20 45/47/20 48/49/20
f 52/50/21 49/32/21 50/48/21 53/51/21
f 53/51/22 50/48/22 48/49/22 51/52/22
f 55/53/23 52/50/23 53/51/23 56/54/23
f 56/54/24 53/51/24 51/52/24 54/55/24
f 33/35/25 55/53/25 56/54/25 35/36/25
f 35/36/26 56/54/26 54/55/26 34/38/26
f 4/28/1 2/27/1 33/35/1 37/28/1
f 36/39/10 34/38/10 54/55/10 51/52/10 48/49/10 45/47/10 42/45/10 39/42/10
f 2/27/8 16/34/8 55/53/8 33/35/8
f 6/29/2 4/28/2 37/28/2 40/40/2
f 8/30/3 6/29/3 40/40/3 43/43/3
f 10/31/4 8/30/4 43/43/4 46/31/4
f 12/32/5 10/31/5 46/31/5 49/32/5
f 14/33/6 12/32/6 49/32/6 52/50/6
f 16/34/7 14/33/7 52/50/7 55/53/7
f 57/1/27 78/2/27 77/56/27 59/57/27
f 59/57/28 77/56/28 79/58/28 61/59/28
f 61/59/9 79/58/9 80/60/9 63/61/9
f 63/61/29 80/60/29 81/62/29 65/63/29
f 65/63/30 81/62/30 82/64/30 67/65/30
f 67/65/31 82/64/31 83/66/31 69/67/31
f 69/67/32 83/66/32 84/68/32 71/69/32
f 71/69/10 84/68/10 85/70/10 73/71/10
f 70/72/27 68/73/27 92/73/27 93/72/27
f 73/71/33 85/70/33 86/74/33 75/75/33
f 75/75/34 86/74/34 78/76/34 57/77/34
f 57/19/35 59/78/35 61/79/35 63/80/35 65/81/35 67/23/35 69/82/35 71/83/35 73/84/35 75/85/35
f 58/86/36 60/87/36 77/88/36 78/27/36
f 60/87/36 62/89/36 79/90/36 77/88/36
f 62/89/36 64/91/36 80/92/36 79/90/36
f 64/91/36 66/93/36 81/94/36 80/92/36
f 66/93/36 68/73/36 82/31/36 81/94/36
f 68/73/36 70/72/36 83/95/36 82/31/36
f 70/72/36 72/96/36 84/97/36 83/95/36
f 72/96/36 74/98/36 85/99/36 84/97/36
f 74/98/36 76/100/36 86/101/36 85/99/36
f 76/100/36 58/86/36 78/27/36 86/101/36
f 90/91/10 89/89/10 99/89/10 100/91/10
f 64/91/10 62/89/10 89/89/10 90/91/10
f 58/86/30 76/100/30 96/100/30 88/86/30
f 72/96/28 70/72/28 93/72/28 94/96/28
f 66/93/33 64/91/33 90/91/33 91/93/33
f 60/87/31 58/86/31 88/86/31 87/87/31
f 74/98/9 72/96/9 94/96/9 95/98/9
f 68/73/34 66/93/34 91/93/34 92/73/34
f 62/89/32 60/87/32 87/87/32 89/89/32
f 76/100/29 74/98/29 95/98/29 96/100/29
f 104/96/28 103/72/28 113/72/28 114/96/28
f 88/86/30 96/100/30 106/100/30 98/86/30
f 94/96/28 93/72/28 103/72/28 104/96/28
f 91/93/33 90/91/33 100/91/33 101/93/33
f 87/87/31 88/86/31 98/86/31 97/87/31
f 95/98/9 94/96/9 104/96/9 105/98/9
f 92/73/34 91/93/34 101/93/34 102/73/34
f 89/89/32 87/87/32 97/87/32 99/89/32
f 96/100/29 95/98/29 105/98/29 106/100/29
f 93/72/27 92/73/27 102/73/27 103/72/27
f 111/93/29 110/91/29 120/91/29 121/93/29
f 101/93/33 100/91/33 110/91/33 111/93/33
f 97/87/31 98/86/31 108/86/31 107/87/31
f 105/98/9 104/96/9 114/96/9 115/98/9
f 102/73/34 101/93/34 111/93/34 112/73/34
f 99/89/32 97/87/32 107/87/32 109/89/32
f 106/100/29 105/98/29 115/98/29 116/100/29
f 103/72/27 102/73/27 112/73/27 113/72/27
f 100/91/10 99/89/10 109/89/10 110/91/10
f 98/86/30 106/100/30 116/100/30 108/86/30
f 117/87/36 118/86/36 126/100/36 125/98/36 124/96/36 123/72/36 122/73/36 121/93/36 120/91/36 119/89/36
f 107/87/27 108/86/27 118/86/27 117/87/27
f 115/98/10 114/96/10 124/96/10 125/98/10
f 112/73/30 111/93/30 121/93/30 122/73/30
f 109/89/28 107/87/28 117/87/28 119/89/28
f 116/100/33 115/98/33 125/98/33 126/100/33
f 113/72/31 112/73/31 122/73/31 123/72/31
f 110/91/9 109/89/9 119/89/9 120/91/9
f 108/86/34 116/100/34 126/100/34 118/86/34
f 114/96/32 113/72/32 123/72/32 124/96/32
