# Blender 4.5.11 LTS
# www.blender.org
mtllib DefaultTracks.mtl
o Cube
v 1.324275 0.452718 -2.226133
v 1.324275 -0.452718 -1.136607
v 1.324275 0.452718 2.226133
v 1.324275 -0.452718 1.136607
v -1.324275 0.452718 -2.226133
v -1.324275 -0.452718 -1.136607
v -1.324275 0.452718 2.226133
v -1.324275 -0.452718 1.136607
vn -0.0000 -1.0000 -0.0000
vn -0.0000 1.0000 -0.0000
vn 1.0000 -0.0000 -0.0000
vn -0.0000 -0.7691 0.6391
vn -1.0000 -0.0000 -0.0000
vn -0.0000 -0.7691 -0.6391
vt 0.375000 0.000000
vt 0.625000 0.000000
vt 0.625000 0.250000
vt 0.375000 0.250000
vt 0.625000 0.500000
vt 0.375000 0.500000
vt 0.625000 0.750000
vt 0.375000 0.750000
vt 0.625000 1.000000
vt 0.375000 1.000000
vt 0.125000 0.500000
vt 0.125000 0.750000
vt 0.875000 0.500000
vt 0.875000 0.750000
s 0
usemtl Material.001
f 6/1/1 2/2/1 4/3/1 8/4/1
f 1/4/2 5/3/2 7/5/2 3/6/2
f 2/6/3 1/5/3 3/7/3 4/8/3
f 4/8/4 3/7/4 7/9/4 8/10/4
f 8/11/5 7/6/5 5/8/5 6/12/5
f 6/5/6 5/13/6 1/14/6 2/7/6
