# Blender 4.5.11 LTS
# www.blender.org
mtllib Wheels.mtl
o Cube.002
v -0.773287 0.334443 -1.008908
v -0.344128 0.334443 -1.135083
v -0.773287 0.201771 -0.965800
v -0.394128 0.127607 -1.067878
v -0.773287 0.119775 -0.852942
v -0.394128 -0.000225 -0.891932
v -0.773287 0.119775 -0.713443
v -0.394128 -0.000225 -0.674452
v -0.773287 0.201771 -0.600585
v -0.394128 0.127607 -0.498507
v -0.773287 0.334443 -0.557477
v -0.394128 0.334443 -0.431302
v -0.773287 0.467115 -0.600585
v -0.394128 0.541279 -0.498507
v -0.773287 0.549111 -0.713443
v -0.394128 0.669111 -0.674452
v -0.773287 0.549111 -0.852942
v -0.394128 0.669111 -0.891932
v -0.773287 0.467115 -0.965800
v -0.394128 0.541279 -1.067878
v -0.773287 0.334443 -0.283908
v -0.344128 0.334443 -0.410083
v -0.773287 0.201771 -0.240800
v -0.394128 0.127607 -0.342878
v -0.773287 0.119775 -0.127942
v -0.394128 -0.000225 -0.166932
v -0.773287 0.119775 0.011558
v -0.394128 -0.000225 0.050548
v -0.773287 0.201771 0.124415
v -0.394128 0.127607 0.226493
v -0.773287 0.334443 0.167523
v -0.394128 0.334443 0.293699
v -0.773287 0.467115 0.124415
v -0.394128 0.541279 0.226493
v -0.773287 0.549111 0.011557
v -0.394128 0.669111 0.050548
v -0.773287 0.549111 -0.127942
v -0.394128 0.669111 -0.166932
v -0.773287 0.467115 -0.240800
v -0.394128 0.541279 -0.342878
v -0.773287 0.334443 0.441092
v -0.344128 0.334443 0.314917
v -0.773287 0.201771 0.484200
v -0.394128 0.127607 0.382122
v -0.773287 0.119775 0.597058
v -0.394128 -0.000225 0.558068
v -0.773287 0.119775 0.736557
v -0.394128 -0.000225 0.775548
v -0.773287 0.201771 0.849415
v -0.394128 0.127607 0.951493
v -0.773287 0.334443 0.892524
v -0.394128 0.334443 1.018699
v -0.773287 0.467115 0.849416
v -0.394128 0.541279 0.951494
v -0.773287 0.549111 0.736558
v -0.394128 0.669111 0.775548
v -0.773287 0.549111 0.597058
v -0.394128 0.669111 0.558068
v -0.773287 0.467115 0.484200
v -0.394128 0.541279 0.382122
v -0.773287 0.334443 1.166092
v -0.344128 0.334443 1.039917
v -0.773287 0.201771 1.209200
v -0.394128 0.127607 1.107122
v -0.773287 0.119775 1.322058
v -0.394128 -0.000225 1.283068
v -0.773287 0.119775 1.461558
v -0.394128 -0.000225 1.500548
v -0.773287 0.201771 1.574415
v -0.394128 0.127607 1.676493
v -0.773287 0.334443 1.617523
v -0.394128 0.334443 1.743698
v -0.773287 0.467115 1.574415
v -0.394128 0.541279 1.676493
v -0.773287 0.549111 1.461558
v -0.394128 0.669111 1.500548
v -0.773287 0.549111 1.322058
v -0.394128 0.669111 1.283068
v -0.773287 0.467115 1.209200
v -0.394128 0.541279 1.107122
v 0.773287 0.334443 -1.008908
v 0.344128 0.334443 -1.135083
v 0.773287 0.201771 -0.965800
v 0.344128 0.127607 -1.067878
v 0.773287 0.119775 -0.852942
v 0.344128 -0.000225 -0.891932
v 0.773287 0.119775 -0.713443
v 0.344128 -0.000225 -0.674452
v 0.773287 0.201771 -0.600585
v 0.344128 0.127607 -0.498507
v 0.773287 0.334443 -0.557477
v 0.344128 0.334443 -0.431302
v 0.773287 0.467115 -0.600585
v 0.344128 0.541279 -0.498507
v 0.773287 0.549111 -0.713443
v 0.344128 0.669111 -0.674452
v 0.773287 0.549111 -0.852942
v 0.344128 0.669111 -0.891932
v 0.773287 0.467115 -0.965800
v 0.394128 0.541279 -1.067878
v 0.773287 0.334443 -0.283908
v 0.344128 0.334443 -0.410083
v 0.773287 0.201771 -0.240800
v 0.344128 0.127607 -0.342878
v 0.773287 0.119775 -0.127942
v 0.344128 -0.000225 -0.166932
v 0.773287 0.119775 0.011558
v 0.344128 -0.000225 0.050548
v 0.773287 0.201771 0.124415
v 0.344128 0.127607 0.226493
v 0.773287 0.334443 0.167523
v 0.344128 0.334443 0.293699
v 0.773287 0.467115 0.124415
v 0.344128 0.541279 0.226493
v 0.773287 0.549111 0.011557
v 0.344128 0.669111 0.050548
v 0.773287 0.549111 -0.127942
v 0.344128 0.669111 -0.166932
v 0.773287 0.467115 -0.240800
v 0.394128 0.541279 -0.342878
v 0.773287 0.334443 0.441092
v 0.344128 0.334443 0.314917
v 0.773287 0.201771 0.484200
v 0.344128 0.127607 0.382122
v 0.773287 0.119775 0.597058
v 0.344128 -0.000225 0.558068
v 0.773287 0.119775 0.736557
v 0.344128 -0.000225 0.775548
v 0.773287 0.201771 0.849415
v 0.344128 0.127607 0.951493
v 0.773287 0.334443 0.892524
v 0.344128 0.334443 1.018699
v 0.773287 0.467115 0.849416
v 0.344128 0.541279 0.951494
v 0.773287 0.549111 0.736558
v 0.344128 0.669111 0.775548
v 0.773287 0.549111 0.597058
v 0.344128 0.669111 0.558068
v 0.773287 0.467115 0.484200
v 0.394128 0.541279 0.382122
v 0.773287 0.334443 1.166092
v 0.344128 0.334443 1.039917
v 0.773287 0.201771 1.209200
v 0.344128 0.127607 1.107122
v 0.773287 0.119775 1.322058
v 0.344128 -0.000225 1.283068
v 0.773287 0.119775 1.461558
v 0.344128 -0.000225 1.500548
v 0.773287 0.201771 1.574415
v 0.344128 0.127607 1.676493
v 0.773287 0.334443 1.617523
v 0.344128 0.334443 1.743698
v 0.773287 0.467115 1.574415
v 0.344128 0.541279 1.676493
v 0.773287 0.549111 1.461558
v 0.344128 0.669111 1.500548
v 0.773287 0.549111 1.322058
v 0.344128 0.669111 1.283068
v 0.773287 0.467115 1.209200
v 0.394128 0.541279 1.107122
v -0.723287 0.334443 -1.135083
v -0.723287 0.127607 -1.067878
v -0.723287 -0.000225 -0.891932
v -0.723287 -0.000225 -0.674452
v -0.723287 0.127607 -0.498507
v -0.723287 0.334443 -0.431302
v -0.723287 0.541279 -0.498507
v -0.723287 0.669111 -0.674452
v -0.723287 0.669111 -0.891932
v -0.723287 0.541279 -1.067878
v -0.723287 0.334443 -0.410083
v -0.723287 0.127607 -0.342878
v -0.723287 -0.000225 -0.166932
v -0.723287 -0.000225 0.050548
v -0.723287 0.127607 0.226493
v -0.723287 0.334443 0.293699
v -0.723287 0.541279 0.226493
v -0.723287 0.669111 0.050548
v -0.723287 0.669111 -0.166932
v -0.723287 0.541279 -0.342878
v -0.723287 0.334443 0.314917
v -0.723287 0.127607 0.382122
v -0.723287 -0.000225 0.558068
v -0.723287 -0.000225 0.775548
v -0.723287 0.127607 0.951493
v -0.723287 0.334443 1.018699
v -0.723287 0.541279 0.951494
v -0.723287 0.669111 0.775548
v -0.723287 0.669111 0.558068
v -0.723287 0.541279 0.382122
v -0.723287 0.334443 1.039917
v -0.723287 0.127607 1.107122
v -0.723287 -0.000225 1.283068
v -0.723287 -0.000225 1.500548
v -0.723287 0.127607 1.676493
v -0.723287 0.334443 1.743698
v -0.723287 0.541279 1.676493
v -0.723287 0.669111 1.500548
v -0.723287 0.669111 1.283068
v -0.723287 0.541279 1.107122
v 0.773287 0.334443 -1.135083
v 0.723287 0.127607 -1.067878
v 0.723287 -0.000225 -0.891932
v 0.723287 -0.000225 -0.674452
v 0.723287 0.127607 -0.498507
v 0.723287 0.334443 -0.431302
v 0.723287 0.541279 -0.498507
v 0.723287 0.669111 -0.674452
v 0.723287 0.669111 -0.891932
v 0.723287 0.541279 -1.067878
v 0.773287 0.334443 -0.410083
v 0.723287 0.127607 -0.342878
v 0.723287 -0.000225 -0.166932
v 0.723287 -0.000225 0.050548
v 0.723287 0.127607 0.226493
v 0.723287 0.334443 0.293699
v 0.723287 0.541279 0.226493
v 0.723287 0.669111 0.050548
v 0.723287 0.669111 -0.166932
v 0.723287 0.541279 -0.342878
v 0.773287 0.334443 0.314917
v 0.723287 0.127607 0.382122
v 0.723287 -0.000225 0.558068
v 0.723287 -0.000225 0.775548
v 0.723287 0.127607 0.951493
v 0.723287 0.334443 1.018699
v 0.723287 0.541279 0.951494
v 0.723287 0.669111 0.775548
v 0.723287 0.669111 0.558068
v 0.723287 0.541279 0.382122
v 0.773287 0.334443 1.039917
v 0.723287 0.127607 1.107122
v 0.723287 -0.000225 1.283068
v 0.723287 -0.000225 1.500548
v 0.723287 0.127607 1.676493
v 0.723287 0.334443 1.743698
v 0.723287 0.541279 1.676493
v 0.723287 0.669111 1.500548
v 0.723287 0.669111 1.283068
v 0.723287 0.541279 1.107122
v -0.743287 0.334443 -0.982621
v -0.743287 0.217222 -0.944534
v -0.743287 0.144775 -0.844819
v -0.743287 0.144775 -0.721566
v -0.743287 0.217222 -0.621851
v -0.743287 0.334443 -0.583764
v -0.743287 0.451664 -0.621852
v -0.743287 0.524111 -0.721566
v -0.743287 0.524111 -0.844819
v -0.743287 0.451664 -0.944534
v -0.743287 0.334443 -0.257621
v -0.743287 0.217222 -0.219534
v -0.743287 0.144775 -0.119819
v -0.743287 0.144775 0.003434
v -0.743287 0.217222 0.103149
v -0.743287 0.334443 0.141237
v -0.743287 0.451664 0.103149
v -0.743287 0.524111 0.003434
v -0.743287 0.524111 -0.119819
v -0.743287 0.451664 -0.219534
v -0.743287 0.334443 0.467379
v -0.743287 0.217222 0.505466
v -0.743287 0.144775 0.605181
v -0.743287 0.144775 0.728434
v -0.743287 0.217222 0.828149
v -0.743287 0.334443 0.866237
v -0.743287 0.451664 0.828150
v -0.743287 0.524111 0.728435
v -0.743287 0.524111 0.605181
v -0.743287 0.451664 0.505466
v -0.743287 0.334443 1.192379
v -0.743287 0.217222 1.230466
v -0.743287 0.144775 1.330181
v -0.743287 0.144775 1.453434
v -0.743287 0.217222 1.553149
v -0.743287 0.334443 1.591236
v -0.743287 0.451664 1.553149
v -0.743287 0.524111 1.453434
v -0.743287 0.524111 1.330181
v -0.743287 0.451664 1.230466
v 0.743287 0.334443 -0.982621
v 0.743287 0.217222 -0.944534
v 0.743287 0.144775 -0.844819
v 0.743287 0.144775 -0.721566
v 0.743287 0.217222 -0.621851
v 0.743287 0.334443 -0.583764
v 0.743287 0.451664 -0.621852
v 0.743287 0.524111 -0.721566
v 0.743287 0.524111 -0.844819
v 0.743287 0.451664 -0.944534
v 0.743287 0.334443 -0.257621
v 0.743287 0.217222 -0.219534
v 0.743287 0.144775 -0.119819
v 0.743287 0.144775 0.003434
v 0.743287 0.217222 0.103149
v 0.743287 0.334443 0.141237
v 0.743287 0.451664 0.103149
v 0.743287 0.524111 0.003434
v 0.743287 0.524111 -0.119819
v 0.743287 0.451664 -0.219534
v 0.743287 0.334443 0.467379
v 0.743287 0.217222 0.505466
v 0.743287 0.144775 0.605181
v 0.743287 0.144775 0.728434
v 0.743287 0.217222 0.828149
v 0.743287 0.334443 0.866237
v 0.743287 0.451664 0.828150
v 0.743287 0.524111 0.728435
v 0.743287 0.524111 0.605181
v 0.743287 0.451664 0.505466
v 0.743287 0.334443 1.192379
v 0.743287 0.217222 1.230466
v 0.743287 0.144775 1.330181
v 0.743287 0.144775 1.453434
v 0.743287 0.217222 1.553149
v 0.743287 0.334443 1.591236
v 0.743287 0.451664 1.553149
v 0.743287 0.524111 1.453434
v 0.743287 0.524111 1.330181
v 0.743287 0.451664 1.230466
v -0.743287 0.334443 -1.008908
v -0.743287 0.201771 -0.965800
v -0.743287 0.119775 -0.852942
v -0.743287 0.119775 -0.713443
v -0.743287 0.201771 -0.600585
v -0.743287 0.334443 -0.557477
v -0.743287 0.467115 -0.600585
v -0.743287 0.549111 -0.713443
v -0.743287 0.549111 -0.852942
v -0.743287 0.467115 -0.965800
v -0.743287 0.334443 -0.283908
v -0.743287 0.201771 -0.240800
v -0.743287 0.119775 -0.127942
v -0.743287 0.119775 0.011558
v -0.743287 0.201771 0.124415
v -0.743287 0.334443 0.167523
v -0.743287 0.467115 0.124415
v -0.743287 0.549111 0.011557
v -0.743287 0.549111 -0.127942
v -0.743287 0.467115 -0.240800
v -0.743287 0.334443 0.441092
v -0.743287 0.201771 0.484200
v -0.743287 0.119775 0.597058
v -0.743287 0.119775 0.736557
v -0.743287 0.201771 0.849415
v -0.743287 0.334443 0.892524
v -0.743287 0.467115 0.849416
v -0.743287 0.549111 0.736558
v -0.743287 0.549111 0.597058
v -0.743287 0.467115 0.484200
v -0.743287 0.334443 1.166092
v -0.743287 0.201771 1.209200
v -0.743287 0.119775 1.322058
v -0.743287 0.119775 1.461558
v -0.743287 0.201771 1.574415
v -0.743287 0.334443 1.617523
v -0.743287 0.467115 1.574415
v -0.743287 0.549111 1.461558
v -0.743287 0.549111 1.322058
v -0.743287 0.467115 1.209200
v 0.743287 0.334443 -1.008908
v 0.743287 0.201771 -0.965800
v 0.743287 0.119775 -0.852942
v 0.743287 0.119775 -0.713443
v 0.743287 0.201771 -0.600585
v 0.743287 0.334443 -0.557477
v 0.743287 0.467115 -0.600585
v 0.743287 0.549111 -0.713443
v 0.743287 0.549111 -0.852942
v 0.743287 0.467115 -0.965800
v 0.743287 0.334443 -0.283908
v 0.743287 0.201771 -0.240800
v 0.743287 0.119775 -0.127942
v 0.743287 0.119775 0.011558
v 0.743287 0.201771 0.124415
v 0.743287 0.334443 0.167523
v 0.743287 0.467115 0.124415
v 0.743287 0.549111 0.011557
v 0.743287 0.549111 -0.127942
v 0.743287 0.467115 -0.240800
v 0.743287 0.334443 0.441092
v 0.743287 0.201771 0.484200
v 0.743287 0.119775 0.597058
v 0.743287 0.119775 0.736557
v 0.743287 0.201771 0.849415
v 0.743287 0.334443 0.892524
v 0.743287 0.467115 0.849416
v 0.743287 0.549111 0.736558
v 0.743287 0.549111 0.597058
v 0.743287 0.467115 0.484200
v 0.743287 0.334443 1.166092
v 0.743287 0.201771 1.209200
v 0.743287 0.119775 1.322058
v 0.743287 0.119775 1.461558
v 0.743287 0.201771 1.574415
v 0.743287 0.334443 1.617523
v 0.743287 0.467115 1.574415
v 0.743287 0.549111 1.461558
v 0.743287 0.549111 1.322058
v 0.743287 0.467115 1.209200
v -0.793287 0.334443 -0.982621
v -0.793287 0.217222 -0.944534
v -0.793287 0.144775 -0.844819
v -0.793287 0.144775 -0.721566
v -0.793287 0.217222 -0.621851
v -0.793287 0.334443 -0.583764
v -0.793287 0.451664 -0.621852
v -0.793287 0.524111 -0.721566
v -0.793287 0.524111 -0.844819
v -0.793287 0.451664 -0.944534
v -0.793287 0.334443 -0.257621
v -0.793287 0.217222 -0.219534
v -0.793287 0.144775 -0.119819
v -0.793287 0.144775 0.003434
v -0.793287 0.217222 0.103149
v -0.793287 0.334443 0.141237
v -0.793287 0.451664 0.103149
v -0.793287 0.524111 0.003434
v -0.793287 0.524111 -0.119819
v -0.793287 0.451664 -0.219534
v -0.793287 0.334443 0.467379
v -0.793287 0.217222 0.505466
v -0.793287 0.144775 0.605181
v -0.793287 0.144775 0.728434
v -0.793287 0.217222 0.828149
v -0.793287 0.334443 0.866237
v -0.793287 0.451664 0.828150
v -0.793287 0.524111 0.728435
v -0.793287 0.524111 0.605181
v -0.793287 0.451664 0.505466
v -0.793287 0.334443 1.192379
v -0.793287 0.217222 1.230466
v -0.793287 0.144775 1.330181
v -0.793287 0.144775 1.453434
v -0.793287 0.217222 1.553149
v -0.793287 0.334443 1.591236
v -0.793287 0.451664 1.553149
v -0.793287 0.524111 1.453434
v -0.793287 0.524111 1.330181
v -0.793287 0.451664 1.230466
v 0.793287 0.334443 -0.982621
v 0.793287 0.217222 -0.944534
v 0.793287 0.144775 -0.844819
v 0.793287 0.144775 -0.721566
v 0.793287 0.217222 -0.621851
v 0.793287 0.334443 -0.583764
v 0.793287 0.451664 -0.621852
v 0.793287 0.524111 -0.721566
v 0.793287 0.524111 -0.844819
v 0.793287 0.451664 -0.944534
v 0.793287 0.334443 -0.257621
v 0.793287 0.217222 -0.219534
v 0.793287 0.144775 -0.119819
v 0.793287 0.144775 0.003434
v 0.793287 0.217222 0.103149
v 0.793287 0.334443 0.141237
v 0.793287 0.451664 0.103149
v 0.793287 0.524111 0.003434
v 0.793287 0.524111 -0.119819
v 0.793287 0.451664 -0.219534
v 0.793287 0.334443 0.467379
v 0.793287 0.217222 0.505466
v 0.793287 0.144775 0.605181
v 0.793287 0.144775 0.728434
v 0.793287 0.217222 0.828149
v 0.793287 0.334443 0.866237
v 0.793287 0.451664 0.828150
v 0.793287 0.524111 0.728435
v 0.793287 0.524111 0.605181
v 0.793287 0.451664 0.505466
v 0.793287 0.334443 1.192379
v 0.793287 0.217222 1.230466
v 0.793287 0.144775 1.330181
v 0.793287 0.144775 1.453434
v 0.793287 0.217222 1.553149
v 0.793287 0.334443 1.591236
v 0.793287 0.451664 1.553149
v 0.793287 0.524111 1.453434
v 0.793287 0.524111 1.330181
v 0.793287 0.451664 1.230466
v -0.773287 0.334443 -1.135083
v -0.773287 0.127607 -1.067878
v -0.394128 0.334443 -1.135083
v -0.344128 0.127607 -1.067878
v -0.773287 -0.000225 -0.891932
v -0.344128 -0.000225 -0.891932
v -0.773287 -0.000225 -0.674452
v -0.344128 -0.000225 -0.674452
v -0.773287 0.127607 -0.498507
v -0.344128 0.127607 -0.498507
v -0.773287 0.334443 -0.431302
v -0.344128 0.334443 -0.431302
v -0.773287 0.541279 -0.498507
v -0.344128 0.541279 -0.498507
v -0.773287 0.669111 -0.674452
v -0.344128 0.669111 -0.674452
v -0.773287 0.669111 -0.891932
v -0.344128 0.669111 -0.891932
v -0.344128 0.541279 -1.067878
v -0.773287 0.541279 -1.067878
v -0.773287 0.334443 -0.410083
v -0.773287 0.127607 -0.342878
v -0.394128 0.334443 -0.410083
v -0.344128 0.127607 -0.342878
v -0.773287 -0.000225 -0.166932
v -0.344128 -0.000225 -0.166932
v -0.773287 -0.000225 0.050548
v -0.344128 -0.000225 0.050548
v -0.773287 0.127607 0.226493
v -0.344128 0.127607 0.226493
v -0.773287 0.334443 0.293699
v -0.344128 0.334443 0.293699
v -0.773287 0.541279 0.226493
v -0.344128 0.541279 0.226493
v -0.773287 0.669111 0.050548
v -0.344128 0.669111 0.050548
v -0.773287 0.669111 -0.166932
v -0.344128 0.669111 -0.166932
v -0.344128 0.541279 -0.342878
v -0.773287 0.541279 -0.342878
v -0.773287 0.334443 0.314917
v -0.773287 0.127607 0.382122
v -0.394128 0.334443 0.314917
v -0.344128 0.127607 0.382122
v -0.773287 -0.000225 0.558068
v -0.344128 -0.000225 0.558068
v -0.773287 -0.000225 0.775548
v -0.344128 -0.000225 0.775548
v -0.773287 0.127607 0.951493
v -0.344128 0.127607 0.951493
v -0.773287 0.334443 1.018699
v -0.344128 0.334443 1.018699
v -0.773287 0.541279 0.951494
v -0.344128 0.541279 0.951494
v -0.773287 0.669111 0.775548
v -0.344128 0.669111 0.775548
v -0.773287 0.669111 0.558068
v -0.344128 0.669111 0.558068
v -0.344128 0.541279 0.382122
v -0.773287 0.541279 0.382122
v -0.773287 0.334443 1.039917
v -0.773287 0.127607 1.107122
v -0.394128 0.334443 1.039917
v -0.344128 0.127607 1.107122
v -0.773287 -0.000225 1.283068
v -0.344128 -0.000225 1.283068
v -0.773287 -0.000225 1.500548
v -0.344128 -0.000225 1.500548
v -0.773287 0.127607 1.676493
v -0.344128 0.127607 1.676493
v -0.773287 0.334443 1.743698
v -0.344128 0.334443 1.743698
v -0.773287 0.541279 1.676493
v -0.344128 0.541279 1.676493
v -0.773287 0.669111 1.500548
v -0.344128 0.669111 1.500548
v -0.773287 0.669111 1.283068
v -0.344128 0.669111 1.283068
v -0.344128 0.541279 1.107122
v -0.773287 0.541279 1.107122
v 0.723287 0.334443 -1.135083
v 0.773287 0.127607 -1.067878
v 0.394128 0.334443 -1.135083
v 0.394128 0.127607 -1.067878
v 0.773287 -0.000225 -0.891932
v 0.394128 -0.000225 -0.891932
v 0.773287 -0.000225 -0.674452
v 0.394128 -0.000225 -0.674452
v 0.773287 0.127607 -0.498507
v 0.394128 0.127607 -0.498507
v 0.773287 0.334443 -0.431302
v 0.394128 0.334443 -0.431302
v 0.773287 0.541279 -0.498507
v 0.394128 0.541279 -0.498507
v 0.773287 0.669111 -0.674452
v 0.394128 0.669111 -0.674452
v 0.773287 0.669111 -0.891932
v 0.394128 0.669111 -0.891932
v 0.344128 0.541279 -1.067878
v 0.773287 0.541279 -1.067878
v 0.723287 0.334443 -0.410083
v 0.773287 0.127607 -0.342878
v 0.394128 0.334443 -0.410083
v 0.394128 0.127607 -0.342878
v 0.773287 -0.000225 -0.166932
v 0.394128 -0.000225 -0.166932
v 0.773287 -0.000225 0.050548
v 0.394128 -0.000225 0.050548
v 0.773287 0.127607 0.226493
v 0.394128 0.127607 0.226493
v 0.773287 0.334443 0.293699
v 0.394128 0.334443 0.293699
v 0.773287 0.541279 0.226493
v 0.394128 0.541279 0.226493
v 0.773287 0.669111 0.050548
v 0.394128 0.669111 0.050548
v 0.773287 0.669111 -0.166932
v 0.394128 0.669111 -0.166932
v 0.344128 0.541279 -0.342878
v 0.773287 0.541279 -0.342878
v 0.723287 0.334443 0.314917
v 0.773287 0.127607 0.382122
v 0.394128 0.334443 0.314917
v 0.394128 0.127607 0.382122
v 0.773287 -0.000225 0.558068
v 0.394128 -0.000225 0.558068
v 0.773287 -0.000225 0.775548
v 0.394128 -0.000225 0.775548
v 0.773287 0.127607 0.951493
v 0.394128 0.127607 0.951493
v 0.773287 0.334443 1.018699
v 0.394128 0.334443 1.018699
v 0.773287 0.541279 0.951494
v 0.394128 0.541279 0.951494
v 0.773287 0.669111 0.775548
v 0.394128 0.669111 0.775548
v 0.773287 0.669111 0.558068
v 0.394128 0.669111 0.558068
v 0.344128 0.541279 0.382122
v 0.773287 0.541279 0.382122
v 0.723287 0.334443 1.039917
v 0.773287 0.127607 1.107122
v 0.394128 0.334443 1.039917
v 0.394128 0.127607 1.107122
v 0.773287 -0.000225 1.283068
v 0.394128 -0.000225 1.283068
v 0.773287 -0.000225 1.500548
v 0.394128 -0.000225 1.500548
v 0.773287 0.127607 1.676493
v 0.394128 0.127607 1.676493
v 0.773287 0.334443 1.743698
v 0.394128 0.334443 1.743698
v 0.773287 0.541279 1.676493
v 0.394128 0.541279 1.676493
v 0.773287 0.669111 1.500548
v 0.394128 0.669111 1.500548
v 0.773287 0.669111 1.283068
v 0.394128 0.669111 1.283068
v 0.344128 0.541279 1.107122
v 0.773287 0.541279 1.107122
v -0.723287 0.334443 -1.145083
v -0.394128 0.334443 -1.145083
v -0.723287 0.121729 -1.075968
v -0.394128 0.121729 -1.075968
v -0.723287 -0.009736 -0.895022
v -0.394128 -0.009736 -0.895022
v -0.723287 -0.009736 -0.671362
v -0.394128 -0.009736 -0.671362
v -0.723287 0.121729 -0.490417
v -0.394128 0.121729 -0.490417
v -0.723287 0.334443 -0.421302
v -0.394128 0.334443 -0.421302
v -0.723287 0.547157 -0.490417
v -0.394128 0.547157 -0.490417
v -0.723287 0.678622 -0.671362
v -0.394128 0.678622 -0.671362
v -0.723287 0.678622 -0.895022
v -0.394128 0.678622 -0.895022
v -0.723287 0.547157 -1.075968
v -0.394128 0.547157 -1.075968
v -0.723287 0.334443 -0.420083
v -0.394128 0.334443 -0.420083
v -0.723287 0.121729 -0.350968
v -0.394128 0.121729 -0.350968
v -0.723287 -0.009736 -0.170022
v -0.394128 -0.009736 -0.170022
v -0.723287 -0.009736 0.053638
v -0.394128 -0.009736 0.053638
v -0.723287 0.121729 0.234583
v -0.394128 0.121729 0.234583
v -0.723287 0.334443 0.303699
v -0.394128 0.334443 0.303699
v -0.723287 0.547157 0.234583
v -0.394128 0.547157 0.234583
v -0.723287 0.678622 0.053638
v -0.394128 0.678622 0.053638
v -0.723287 0.678622 -0.170022
v -0.394128 0.678622 -0.170022
v -0.723287 0.547157 -0.350968
v -0.394128 0.547157 -0.350968
v -0.723287 0.334443 0.304917
v -0.394128 0.334443 0.304917
v -0.723287 0.121729 0.374032
v -0.394128 0.121729 0.374032
v -0.723287 -0.009736 0.554978
v -0.394128 -0.009736 0.554978
v -0.723287 -0.009736 0.778638
v -0.394128 -0.009736 0.778638
v -0.723287 0.121729 0.959583
v -0.394128 0.121729 0.959583
v -0.723287 0.334443 1.028699
v -0.394128 0.334443 1.028699
v -0.723287 0.547157 0.959584
v -0.394128 0.547157 0.959584
v -0.723287 0.678622 0.778638
v -0.394128 0.678622 0.778638
v -0.723287 0.678622 0.554978
v -0.394128 0.678622 0.554978
v -0.723287 0.547157 0.374032
v -0.394128 0.547157 0.374032
v -0.723287 0.334443 1.029917
v -0.394128 0.334443 1.029917
v -0.723287 0.121729 1.099032
v -0.394128 0.121729 1.099032
v -0.723287 -0.009735 1.279978
v -0.394128 -0.009735 1.279978
v -0.723287 -0.009735 1.503638
v -0.394128 -0.009735 1.503638
v -0.723287 0.121729 1.684583
v -0.394128 0.121729 1.684583
v -0.723287 0.334443 1.753698
v -0.394128 0.334443 1.753698
v -0.723287 0.547157 1.684583
v -0.394128 0.547157 1.684583
v -0.723287 0.678622 1.503638
v -0.394128 0.678622 1.503638
v -0.723287 0.678622 1.279978
v -0.394128 0.678622 1.279978
v -0.723287 0.547157 1.099032
v -0.394128 0.547157 1.099032
v 0.723287 0.334443 -1.145083
v 0.394128 0.334443 -1.145083
v 0.723287 0.121729 -1.075968
v 0.394128 0.121729 -1.075968
v 0.723287 -0.009736 -0.895022
v 0.394128 -0.009736 -0.895022
v 0.723287 -0.009736 -0.671362
v 0.394128 -0.009736 -0.671362
v 0.723287 0.121729 -0.490417
v 0.394128 0.121729 -0.490417
v 0.723287 0.334443 -0.421302
v 0.394128 0.334443 -0.421302
v 0.723287 0.547157 -0.490417
v 0.394128 0.547157 -0.490417
v 0.723287 0.678622 -0.671362
v 0.394128 0.678622 -0.671362
v 0.723287 0.678622 -0.895022
v 0.394128 0.678622 -0.895022
v 0.723287 0.547157 -1.075968
v 0.394128 0.547157 -1.075968
v 0.723287 0.334443 -0.420083
v 0.394128 0.334443 -0.420083
v 0.723287 0.121729 -0.350968
v 0.394128 0.121729 -0.350968
v 0.723287 -0.009736 -0.170022
v 0.394128 -0.009736 -0.170022
v 0.723287 -0.009736 0.053638
v 0.394128 -0.009736 0.053638
v 0.723287 0.121729 0.234583
v 0.394128 0.121729 0.234583
v 0.723287 0.334443 0.303699
v 0.394128 0.334443 0.303699
v 0.723287 0.547157 0.234583
v 0.394128 0.547157 0.234583
v 0.723287 0.678622 0.053638
v 0.394128 0.678622 0.053638
v 0.723287 0.678622 -0.170022
v 0.394128 0.678622 -0.170022
v 0.723287 0.547157 -0.350968
v 0.394128 0.547157 -0.350968
v 0.723287 0.334443 0.304917
v 0.394128 0.334443 0.304917
v 0.723287 0.121729 0.374032
v 0.394128 0.121729 0.374032
v 0.723287 -0.009736 0.554978
v 0.394128 -0.009736 0.554978
v 0.723287 -0.009736 0.778638
v 0.394128 -0.009736 0.778638
v 0.723287 0.121729 0.959583
v 0.394128 0.121729 0.959583
v 0.723287 0.334443 1.028699
v 0.394128 0.334443 1.028699
v 0.723287 0.547157 0.959584
v 0.394128 0.547157 0.959584
v 0.723287 0.678622 0.778638
v 0.394128 0.678622 0.778638
v 0.723287 0.678622 0.554978
v 0.394128 0.678622 0.554978
v 0.723287 0.547157 0.374032
v 0.394128 0.547157 0.374032
v 0.723287 0.334443 1.029917
v 0.394128 0.334443 1.029917
v 0.723287 0.121729 1.099032
v 0.394128 0.121729 1.099032
v 0.723287 -0.009735 1.279978
v 0.394128 -0.009735 1.279978
v 0.723287 -0.009735 1.503638
v 0.394128 -0.009735 1.503638
v 0.723287 0.121729 1.684583
v 0.394128 0.121729 1.684583
v 0.723287 0.334443 1.753698
v 0.394128 0.334443 1.753698
v 0.723287 0.547157 1.684583
v 0.394128 0.547157 1.684583
v 0.723287 0.678622 1.503638
v 0.394128 0.678622 1.503638
v 0.723287 0.678622 1.279978
v 0.394128 0.678622 1.279978
v 0.723287 0.547157 1.099032
v 0.394128 0.547157 1.099032
vn 1.0000 -0.0000 -0.0000
vn -1.0000 -0.0000 -0.0000
vn -0.0000 -0.5878 0.8090
vn -0.0000 -0.9511 0.3090
vn -0.0000 -0.0000 -1.0000
vn -0.0000 -0.5878 -0.8090
vn -0.0000 0.9511 0.3090
vn -0.0000 0.5878 0.8090
vn -0.0000 -0.9511 -0.3090
vn -0.0000 0.5878 -0.8090
vn -0.0000 -0.0000 1.0000
vn -0.0000 0.9511 -0.3090
vn -0.0000 -0.3090 -0.9511
vn -0.0000 -0.8090 -0.5878
vn -0.0000 -1.0000 -0.0000
vn -0.0000 -0.8090 0.5878
vn -0.0000 -0.3090 0.9511
vn -0.0000 0.3090 0.9511
vn -0.0000 0.8090 0.5878
vn -0.0000 1.0000 -0.0000
vn -0.0000 0.8090 -0.5878
vn -0.0000 0.3090 -0.9511
vt 0.300000 0.941746
vt 0.200000 0.941746
vt 0.600000 0.558253
vt 0.700000 0.558253
vt 0.000000 0.941746
vt 0.100000 0.941746
vt 0.200000 0.558253
vt 0.300000 0.558253
vt 0.800000 0.941746
vt 0.700000 0.941746
vt 0.400000 0.941746
vt 0.800000 0.558253
vt 0.391068 0.444164
vt 0.250000 0.490000
vt 0.108932 0.444164
vt 0.021746 0.324164
vt 0.021746 0.175836
vt 0.108932 0.055836
vt 0.250000 0.010000
vt 0.391068 0.055836
vt 0.478254 0.175836
vt 0.478254 0.324164
vt 0.400000 0.558253
vt 0.659514 0.374544
vt 0.603590 0.297571
vt 0.900000 0.941746
vt 0.300000 0.558254
vt 0.200000 0.558254
vt 0.500000 0.941746
vt 0.900000 0.558253
vt 0.500000 0.558253
vt 1.000000 0.941746
vt 0.400000 0.558254
vt 0.600000 0.941746
vt 1.000000 0.558253
vt 0.750000 0.096055
vt 0.659514 0.125456
vt 0.000000 0.558254
vt 0.100000 0.558253
vt 0.500000 0.558254
vt 0.600000 0.558254
vt 0.896410 0.297571
vt 0.840486 0.374544
vt 0.100000 0.558254
vt 0.000000 0.558253
vt 0.700000 0.558254
vt 0.603590 0.202429
vt 0.800000 0.558254
vt 0.900000 0.941746
vt 0.840486 0.125456
vt 0.900000 0.558254
vt 1.000000 0.558254
vt 0.750000 0.403945
vt 0.659514 0.125456
vt 0.896410 0.202429
vt 0.840486 0.374544
vt 0.750000 0.490000
vt 0.891068 0.444164
vt 0.896410 0.297571
vt 0.978254 0.324164
vt 0.896410 0.202429
vt 0.978254 0.175836
vt 0.840486 0.125456
vt 0.891068 0.055836
vt 0.750000 0.096056
vt 0.750000 0.010000
vt 0.659514 0.125456
vt 0.608932 0.055836
vt 0.603590 0.202429
vt 0.521746 0.175836
vt 0.603590 0.297571
vt 0.521746 0.324164
vt 0.659514 0.374544
vt 0.608932 0.444164
vt 0.840486 0.374544
vt 0.750000 0.403945
vt 0.896410 0.297571
vt 0.603590 0.202429
vt 0.603590 0.297571
vt 0.840486 0.374544
vt 0.750000 0.403945
vt 0.896410 0.297571
vt 0.896410 0.202429
vt 0.840486 0.125456
vt 0.750000 0.096055
vt 0.603590 0.202429
vt 0.603590 0.297571
vt 0.659514 0.374544
vt 0.750000 0.403945
vt 0.896410 0.297571
vt 0.896410 0.202429
vt 0.840486 0.125456
vt 0.750000 0.096056
vt 0.896410 0.202429
vt 0.840486 0.125456
vt 0.750000 0.096056
vt 0.659514 0.125456
vt 0.603590 0.202429
vt 0.603590 0.297571
vt 0.659514 0.374544
vt 0.750000 0.403944
vt 0.840486 0.374544
vt 0.896410 0.202429
vt 0.659514 0.125456
vt 0.603590 0.202429
vt 0.603590 0.297571
vt 0.896410 0.297571
vt 0.896410 0.202429
vt 0.750000 0.096055
vt 0.750000 0.403945
vt 0.896410 0.297571
vt 0.896410 0.202429
vt 0.659514 0.125456
vt 0.603590 0.202429
vt 0.603590 0.297571
vt 0.620641 0.292031
vt 0.670052 0.360040
vt 0.750000 0.113984
vt 0.829948 0.139961
vt 0.829948 0.360040
vt 0.879359 0.292031
vt 0.620641 0.207969
vt 0.879359 0.207969
vt 0.750000 0.386016
vt 0.670052 0.139961
vt 0.879359 0.292031
vt 0.829948 0.360040
vt 0.750000 0.386016
vt 0.879359 0.292031
vt 0.879359 0.207969
vt 0.829948 0.139961
vt 0.750000 0.113984
vt 0.670052 0.139961
vt 0.620641 0.207969
vt 0.620641 0.292031
vt 0.670052 0.360040
vt 0.879359 0.207969
vt 0.829948 0.139961
vt 0.750000 0.113984
vt 0.670052 0.139961
vt 0.620641 0.207969
vt 0.620641 0.292031
vt 0.670052 0.360040
vt 0.829948 0.360040
vt 0.750000 0.386016
vt 0.879359 0.292031
vt 0.879359 0.207969
vt 0.829948 0.139961
vt 0.670052 0.139960
vt 0.620641 0.207969
vt 0.829948 0.360040
vt 0.750000 0.386016
vt 0.879359 0.292031
vt 0.879359 0.207969
vt 0.829948 0.139961
vt 0.750000 0.113984
vt 0.750000 0.386016
vt 0.829948 0.360040
vt 0.879359 0.292031
vt 0.879359 0.207969
vt 0.829948 0.139961
vt 0.670052 0.139961
vt 0.620641 0.207969
vt 0.620640 0.292031
vt 0.670052 0.360040
vt 0.829948 0.360040
vt 0.879359 0.292031
vt 0.879359 0.207969
vt 0.829948 0.139961
vt 0.750000 0.113984
vt 0.670052 0.139961
vt 0.620641 0.207969
vt 0.620641 0.292031
vt 0.670052 0.360040
vt 0.829948 0.360040
vt 0.670052 0.139960
vt 0.620641 0.292031
vt 0.829948 0.360040
vt 0.879359 0.292031
vt 0.829948 0.139961
vt 0.750000 0.113984
vt 0.670052 0.139961
vt 0.620641 0.207969
vt 0.620641 0.292031
vt 0.670052 0.360040
vt 0.900000 0.500000
vt 1.000000 0.500000
vt 1.000000 1.000000
vt 0.900000 1.000000
vt 0.800000 0.500000
vt 0.800000 1.000000
vt 0.700000 0.500000
vt 0.700000 1.000000
vt 0.600000 0.500000
vt 0.600000 1.000000
vt 0.500000 0.500000
vt 0.500000 1.000000
vt 0.400000 0.500000
vt 0.400000 1.000000
vt 0.300000 0.500000
vt 0.300000 1.000000
vt 0.200000 0.500000
vt 0.200000 1.000000
vt 0.100000 1.000000
vt 0.000000 1.000000
vt 0.100000 0.500000
vt 0.000000 0.500000
s 1
f 16/1/1 18/2/1 658/2/1 656/1/1
f 195/3/2 194/4/2 707/4/2 709/3/2
f 583/5/2 120/6/2 760/6/2 742/5/2
f 169/7/2 168/8/2 655/8/2 657/7/2
f 66/9/1 68/10/1 708/10/1 706/9/1
f 120/6/2 598/2/2 758/2/2 760/6/2
f 14/11/1 16/1/1 656/1/1 654/11/1
f 194/4/2 193/12/2 705/12/2 707/4/2
f 484/13/1 2/14/1 499/15/1 498/16/1 496/17/1 494/18/1 492/19/1 490/20/1 488/21/1 486/22/1
f 598/2/2 596/1/2 756/1/2 758/2/2
f 168/8/2 167/23/2 653/23/2 655/8/2
f 139/24/3 137/25/4 389/25/4 390/24/3
f 64/26/1 66/9/1 706/9/1 704/26/1
f 218/27/1 219/28/1 757/28/1 755/27/1
f 12/29/1 14/11/1 654/11/1 652/29/1
f 193/12/2 192/30/2 703/30/2 705/12/2
f 596/1/2 594/11/2 754/11/2 756/1/2
f 167/23/2 166/31/2 651/31/2 653/23/2
f 543/32/1 64/26/1 704/26/1 702/32/1
f 217/33/1 218/27/1 755/27/1 753/33/1
f 504/13/1 22/14/1 519/15/1 518/16/1 516/17/1 514/18/1 512/19/1 510/20/1 508/21/1 506/22/1
f 10/34/1 12/29/1 652/29/1 650/34/1
f 192/30/2 191/35/2 701/35/2 703/30/2
f 31/36/5 33/37/6 337/37/6 336/36/5
f 594/11/2 592/29/2 752/29/2 754/11/2
f 166/31/2 165/3/2 649/3/2 651/31/2
f 181/38/2 190/39/2 699/39/2 681/38/2
f 216/40/1 217/33/1 753/33/1 751/40/1
f 8/10/1 10/34/1 650/34/1 648/10/1
f 190/39/2 189/7/2 697/7/2 699/39/2
f 592/29/2 590/34/2 750/34/2 752/29/2
f 165/3/2 164/4/2 647/4/2 649/3/2
f 524/13/1 42/14/1 539/15/1 538/16/1 536/17/1 534/18/1 532/19/1 530/20/1 528/21/1 526/22/1
f 58/2/1 60/6/1 700/6/1 698/2/1
f 215/41/1 216/40/1 751/40/1 749/41/1
f 85/42/7 83/43/8 362/43/8 363/42/7
f 6/9/1 8/10/1 648/10/1 646/9/1
f 240/44/1 621/45/1 781/45/1 799/44/1
f 60/6/1 523/5/1 682/5/1 700/6/1
f 590/34/2 588/10/2 748/10/2 750/34/2
f 164/4/2 163/12/2 645/12/2 647/4/2
f 239/28/1 240/44/1 799/44/1 797/28/1
f 56/1/1 58/2/1 698/2/1 696/1/1
f 214/46/1 215/41/1 749/41/1 747/46/1
f 544/13/1 62/14/1 559/15/1 558/16/1 556/17/1 554/18/1 552/19/1 550/20/1 548/21/1 546/22/1
f 4/26/1 6/9/1 646/9/1 644/26/1
f 623/5/2 160/6/2 800/6/2 782/5/2
f 137/25/4 135/47/9 388/47/9 389/25/4
f 189/7/2 188/8/2 695/8/2 697/7/2
f 588/10/2 586/9/2 746/9/2 748/10/2
f 163/12/2 162/30/2 643/30/2 645/12/2
f 160/6/2 638/2/2 798/2/2 800/6/2
f 54/11/1 56/1/1 696/1/1 694/11/1
f 213/48/1 214/46/1 747/46/1 745/48/1
f 483/32/1 4/26/1 644/26/1 642/32/1
f 638/2/2 636/1/2 796/1/2 798/2/2
f 84/13/2 86/22/2 88/21/2 90/20/2 92/19/2 94/18/2 96/17/2 98/16/2 579/15/2 82/14/2
f 188/8/2 187/23/2 693/23/2 695/8/2
f 586/9/2 584/49/2 744/49/2 746/9/2
f 29/50/10 31/36/5 336/36/5 335/50/10
f 162/30/2 161/35/2 641/35/2 643/30/2
f 238/27/1 239/28/1 797/28/1 795/27/1
f 52/29/1 54/11/1 694/11/1 692/29/1
f 212/51/1 213/48/1 745/48/1 743/51/1
f 636/1/2 634/11/2 794/11/2 796/1/2
f 187/23/2 186/31/2 691/31/2 693/23/2
f 584/49/2 583/32/2 742/32/2 744/49/2
f 237/33/1 238/27/1 795/27/1 793/33/1
f 104/13/2 106/22/2 108/21/2 110/20/2 112/19/2 114/18/2 116/17/2 118/16/2 599/15/2 102/14/2
f 50/34/1 52/29/1 692/29/1 690/34/1
f 581/52/1 212/51/1 743/51/1 741/52/1
f 83/43/8 81/53/11 361/53/11 362/43/8
f 634/11/2 632/29/2 792/29/2 794/11/2
f 186/31/2 185/3/2 689/3/2 691/31/2
f 210/44/1 561/45/1 721/45/1 739/44/1
f 236/40/1 237/33/1 793/33/1 791/40/1
f 48/10/1 50/34/1 690/34/1 688/10/1
f 209/28/1 210/44/1 739/44/1 737/28/1
f 632/29/2 630/34/2 790/34/2 792/29/2
f 185/3/2 184/4/2 687/4/2 689/3/2
f 124/13/2 126/22/2 128/21/2 130/20/2 132/19/2 134/18/2 136/17/2 138/16/2 619/15/2 122/14/2
f 563/5/2 100/6/2 740/6/2 722/5/2
f 235/41/1 236/40/1 791/40/1 789/41/1
f 135/47/9 133/54/6 387/54/6 388/47/9
f 46/9/1 48/10/1 688/10/1 686/9/1
f 100/6/2 578/2/2 738/2/2 740/6/2
f 630/34/2 628/10/2 788/10/2 790/34/2
f 184/4/2 183/12/2 685/12/2 687/4/2
f 578/2/2 576/1/2 736/1/2 738/2/2
f 234/46/1 235/41/1 789/41/1 787/46/1
f 44/26/1 46/9/1 686/9/1 684/26/1
f 208/27/1 209/28/1 737/28/1 735/27/1
f 144/13/2 146/22/2 148/21/2 150/20/2 152/19/2 154/18/2 156/17/2 158/16/2 639/15/2 142/14/2
f 628/10/2 626/9/2 786/9/2 788/10/2
f 183/12/2 182/30/2 683/30/2 685/12/2
f 27/55/12 29/50/10 335/50/10 334/55/12
f 3/56/2 1/53/2 481/57/2 482/58/2
f 5/59/2 3/56/2 482/58/2 485/60/2
f 7/61/2 5/59/2 485/60/2 487/62/2
f 9/63/2 7/61/2 487/62/2 489/64/2
f 11/65/2 9/63/2 489/64/2 491/66/2
f 13/67/2 11/65/2 491/66/2 493/68/2
f 15/69/2 13/67/2 493/68/2 495/70/2
f 17/71/2 15/69/2 495/70/2 497/72/2
f 19/73/2 17/71/2 497/72/2 500/74/2
f 1/53/2 19/73/2 500/74/2 481/57/2
f 23/75/2 21/76/2 501/57/2 502/58/2
f 25/77/2 23/75/2 502/58/2 505/60/2
f 27/55/2 25/77/2 505/60/2 507/62/2
f 29/50/2 27/55/2 507/62/2 509/64/2
f 31/36/2 29/50/2 509/64/2 511/66/2
f 33/37/2 31/36/2 511/66/2 513/68/2
f 35/78/2 33/37/2 513/68/2 515/70/2
f 37/79/2 35/78/2 515/70/2 517/72/2
f 39/73/2 37/79/2 517/72/2 520/74/2
f 21/76/2 39/73/2 520/74/2 501/57/2
f 43/80/2 41/81/2 521/57/2 522/58/2
f 45/82/2 43/80/2 522/58/2 525/60/2
f 47/83/2 45/82/2 525/60/2 527/62/2
f 49/84/2 47/83/2 527/62/2 529/64/2
f 51/85/2 49/84/2 529/64/2 531/66/2
f 53/54/2 51/85/2 531/66/2 533/68/2
f 55/86/2 53/54/2 533/68/2 535/70/2
f 57/87/2 55/86/2 535/70/2 537/72/2
f 59/88/2 57/87/2 537/72/2 540/74/2
f 41/81/2 59/88/2 540/74/2 521/57/2
f 63/56/2 61/89/2 541/57/2 542/58/2
f 65/90/2 63/56/2 542/58/2 545/60/2
f 67/91/2 65/90/2 545/60/2 547/62/2
f 69/92/2 67/91/2 547/62/2 549/64/2
f 71/93/2 69/92/2 549/64/2 551/66/2
f 73/67/2 71/93/2 551/66/2 553/68/2
f 75/69/2 73/67/2 553/68/2 555/70/2
f 77/79/2 75/69/2 555/70/2 557/72/2
f 79/24/2 77/79/2 557/72/2 560/74/2
f 61/89/2 79/24/2 560/74/2 541/57/2
f 81/53/1 83/43/1 562/58/1 201/57/1
f 83/43/1 85/42/1 565/60/1 562/58/1
f 85/42/1 87/94/1 567/62/1 565/60/1
f 87/94/1 89/95/1 569/64/1 567/62/1
f 89/95/1 91/96/1 571/66/1 569/64/1
f 91/96/1 93/97/1 573/68/1 571/66/1
f 93/97/1 95/98/1 575/70/1 573/68/1
f 95/98/1 97/99/1 577/72/1 575/70/1
f 97/99/1 99/100/1 580/74/1 577/72/1
f 99/100/1 81/53/1 201/57/1 580/74/1
f 101/101/1 103/102/1 582/58/1 211/57/1
f 103/102/1 105/77/1 585/60/1 582/58/1
f 105/77/1 107/103/1 587/62/1 585/60/1
f 107/103/1 109/50/1 589/64/1 587/62/1
f 109/50/1 111/36/1 591/66/1 589/64/1
f 111/36/1 113/104/1 593/68/1 591/66/1
f 113/104/1 115/105/1 595/70/1 593/68/1
f 115/105/1 117/106/1 597/72/1 595/70/1
f 117/106/1 119/100/1 600/74/1 597/72/1
f 119/100/1 101/101/1 211/57/1 600/74/1
f 121/81/1 123/102/1 602/58/1 221/57/1
f 123/102/1 125/107/1 605/60/1 602/58/1
f 125/107/1 127/108/1 607/62/1 605/60/1
f 127/108/1 129/50/1 609/64/1 607/62/1
f 129/50/1 131/109/1 611/66/1 609/64/1
f 131/109/1 133/54/1 613/68/1 611/66/1
f 133/54/1 135/47/1 615/70/1 613/68/1
f 135/47/1 137/25/1 617/72/1 615/70/1
f 137/25/1 139/24/1 620/74/1 617/72/1
f 139/24/1 121/81/1 221/57/1 620/74/1
f 141/110/1 143/102/1 622/58/1 231/57/1
f 143/102/1 145/111/1 625/60/1 622/58/1
f 145/111/1 147/112/1 627/62/1 625/60/1
f 147/112/1 149/63/1 629/64/1 627/62/1
f 149/63/1 151/93/1 631/66/1 629/64/1
f 151/93/1 153/113/1 633/68/1 631/66/1
f 153/113/1 155/114/1 635/70/1 633/68/1
f 155/114/1 157/115/1 637/72/1 635/70/1
f 157/115/1 159/24/1 640/74/1 637/72/1
f 159/24/1 141/110/1 231/57/1 640/74/1
f 279/116/12 280/117/10 440/117/10 439/116/12
f 306/118/11 305/119/3 465/119/3 466/118/11
f 252/120/6 253/121/9 413/121/9 412/120/6
f 278/122/7 279/116/12 439/116/12 438/122/7
f 305/119/3 304/123/4 464/123/4 465/119/3
f 251/124/5 252/120/6 412/120/6 411/124/5
f 277/125/8 278/122/7 438/122/7 437/125/8
f 304/123/4 303/126/9 463/126/9 464/123/4
f 87/94/12 85/42/7 363/42/7 364/94/12
f 33/37/6 35/78/9 338/78/9 337/37/6
f 121/81/11 139/24/3 390/24/3 381/81/11
f 89/95/10 87/94/12 364/94/12 365/95/10
f 35/78/9 37/79/4 339/79/4 338/78/9
f 143/102/8 141/110/11 391/110/11 392/102/8
f 91/96/5 89/95/10 365/95/10 366/96/5
f 37/79/4 39/73/3 340/73/3 339/79/4
f 145/111/7 143/102/8 392/102/8 393/111/7
f 93/97/6 91/96/5 366/96/5 367/97/6
f 39/73/3 21/76/11 331/76/11 340/73/3
f 147/112/12 145/111/7 393/111/7 394/112/12
f 95/98/9 93/97/6 367/97/6 368/98/9
f 41/81/11 43/80/8 342/80/8 341/81/11
f 149/63/10 147/112/12 394/112/12 395/63/10
f 97/99/4 95/98/9 368/98/9 369/99/4
f 43/80/8 45/82/7 343/82/7 342/80/8
f 151/93/5 149/63/10 395/63/10 396/93/5
f 99/100/3 97/99/4 369/99/4 370/100/3
f 45/82/7 47/83/12 344/83/12 343/82/7
f 153/113/6 151/93/5 396/93/5 397/113/6
f 81/53/11 99/100/3 370/100/3 361/53/11
f 47/83/12 49/84/10 345/84/10 344/83/12
f 155/114/9 153/113/6 397/113/6 398/114/9
f 103/102/8 101/101/11 371/101/11 372/102/8
f 49/84/10 51/85/5 346/85/5 345/84/10
f 157/115/4 155/114/9 398/114/9 399/115/4
f 105/77/7 103/102/8 372/102/8 373/77/7
f 51/85/5 53/54/6 347/54/6 346/85/5
f 159/24/3 157/115/4 399/115/4 400/24/3
f 107/103/12 105/77/7 373/77/7 374/103/12
f 53/54/6 55/86/9 348/86/9 347/54/6
f 1/53/11 3/56/8 322/56/8 321/53/11
f 141/110/11 159/24/3 400/24/3 391/110/11
f 109/50/10 107/103/12 374/103/12 375/50/10
f 55/86/9 57/87/4 349/87/4 348/86/9
f 3/56/8 5/59/7 323/59/7 322/56/8
f 111/36/5 109/50/10 375/50/10 376/36/5
f 57/87/4 59/88/3 350/88/3 349/87/4
f 5/59/7 7/61/12 324/61/12 323/59/7
f 113/104/6 111/36/5 376/36/5 377/104/6
f 59/88/3 41/81/11 341/81/11 350/88/3
f 7/61/12 9/63/10 325/63/10 324/61/12
f 115/105/9 113/104/6 377/104/6 378/105/9
f 61/89/11 63/56/8 352/56/8 351/89/11
f 9/63/10 11/65/5 326/65/5 325/63/10
f 117/106/4 115/105/9 378/105/9 379/106/4
f 63/56/8 65/90/7 353/90/7 352/56/8
f 11/65/5 13/67/6 327/67/6 326/65/5
f 119/100/3 117/106/4 379/106/4 380/100/3
f 65/90/7 67/91/12 354/91/12 353/90/7
f 13/67/6 15/69/9 328/69/9 327/67/6
f 101/101/11 119/100/3 380/100/3 371/101/11
f 67/91/12 69/92/10 355/92/10 354/91/12
f 15/69/9 17/71/4 329/71/4 328/69/9
f 123/102/8 121/81/11 381/81/11 382/102/8
f 69/92/10 71/93/5 356/93/5 355/92/10
f 17/71/4 19/73/3 330/73/3 329/71/4
f 125/107/7 123/102/8 382/102/8 383/107/7
f 71/93/5 73/67/6 357/67/6 356/93/5
f 19/73/3 1/53/11 321/53/11 330/73/3
f 127/108/12 125/107/7 383/107/7 384/108/12
f 73/67/6 75/69/9 358/69/9 357/67/6
f 21/76/11 23/75/8 332/75/8 331/76/11
f 129/50/10 127/108/12 384/108/12 385/50/10
f 75/69/9 77/79/4 359/79/4 358/69/9
f 23/75/8 25/77/7 333/77/7 332/75/8
f 131/109/5 129/50/10 385/50/10 386/109/5
f 77/79/4 79/24/3 360/24/3 359/79/4
f 25/77/7 27/55/12 334/55/12 333/77/7
f 133/54/6 131/109/5 386/109/5 387/54/6
f 79/24/3 61/89/11 351/89/11 360/24/3
f 242/127/2 241/128/2 321/53/2 322/56/2
f 243/129/2 242/127/2 322/56/2 323/59/2
f 244/130/2 243/129/2 323/59/2 324/61/2
f 245/131/2 244/130/2 324/61/2 325/63/2
f 246/132/2 245/131/2 325/63/2 326/65/2
f 247/133/2 246/132/2 326/65/2 327/67/2
f 248/134/2 247/133/2 327/67/2 328/69/2
f 249/135/2 248/134/2 328/69/2 329/71/2
f 250/136/2 249/135/2 329/71/2 330/73/2
f 241/128/2 250/136/2 330/73/2 321/53/2
f 252/120/2 251/124/2 331/76/2 332/75/2
f 253/121/2 252/120/2 332/75/2 333/77/2
f 254/137/2 253/121/2 333/77/2 334/55/2
f 255/138/2 254/137/2 334/55/2 335/50/2
f 256/139/2 255/138/2 335/50/2 336/36/2
f 257/140/2 256/139/2 336/36/2 337/37/2
f 258/141/2 257/140/2 337/37/2 338/78/2
f 259/142/2 258/141/2 338/78/2 339/79/2
f 260/143/2 259/142/2 339/79/2 340/73/2
f 251/124/2 260/143/2 340/73/2 331/76/2
f 262/144/2 261/145/2 341/81/2 342/80/2
f 263/146/2 262/144/2 342/80/2 343/82/2
f 264/147/2 263/146/2 343/82/2 344/83/2
f 265/148/2 264/147/2 344/83/2 345/84/2
f 266/118/2 265/148/2 345/84/2 346/85/2
f 267/149/2 266/118/2 346/85/2 347/54/2
f 268/150/2 267/149/2 347/54/2 348/86/2
f 269/142/2 268/150/2 348/86/2 349/87/2
f 270/143/2 269/142/2 349/87/2 350/88/2
f 261/145/2 270/143/2 350/88/2 341/81/2
f 272/151/2 271/152/2 351/89/2 352/56/2
f 273/153/2 272/151/2 352/56/2 353/90/2
f 274/154/2 273/153/2 353/90/2 354/91/2
f 275/155/2 274/154/2 354/91/2 355/92/2
f 276/156/2 275/155/2 355/92/2 356/93/2
f 277/125/2 276/156/2 356/93/2 357/67/2
f 278/122/2 277/125/2 357/67/2 358/69/2
f 279/116/2 278/122/2 358/69/2 359/79/2
f 280/117/2 279/116/2 359/79/2 360/24/2
f 271/152/2 280/117/2 360/24/2 351/89/2
f 281/157/1 282/158/1 362/43/1 361/53/1
f 282/158/1 283/159/1 363/42/1 362/43/1
f 283/159/1 284/160/1 364/94/1 363/42/1
f 284/160/1 285/161/1 365/95/1 364/94/1
f 285/161/1 286/156/1 366/96/1 365/95/1
f 286/156/1 287/162/1 367/97/1 366/96/1
f 287/162/1 288/163/1 368/98/1 367/97/1
f 288/163/1 289/164/1 369/99/1 368/98/1
f 289/164/1 290/165/1 370/100/1 369/99/1
f 290/165/1 281/157/1 361/53/1 370/100/1
f 291/128/1 292/166/1 372/102/1 371/101/1
f 292/166/1 293/167/1 373/77/1 372/102/1
f 293/167/1 294/168/1 374/103/1 373/77/1
f 294/168/1 295/169/1 375/50/1 374/103/1
f 295/169/1 296/170/1 376/36/1 375/50/1
f 296/170/1 297/171/1 377/104/1 376/36/1
f 297/171/1 298/172/1 378/105/1 377/104/1
f 298/172/1 299/173/1 379/106/1 378/105/1
f 299/173/1 300/174/1 380/100/1 379/106/1
f 300/174/1 291/128/1 371/101/1 380/100/1
f 301/145/1 302/175/1 382/102/1 381/81/1
f 302/175/1 303/126/1 383/107/1 382/102/1
f 303/126/1 304/123/1 384/108/1 383/107/1
f 304/123/1 305/119/1 385/50/1 384/108/1
f 305/119/1 306/118/1 386/109/1 385/50/1
f 306/118/1 307/176/1 387/54/1 386/109/1
f 307/176/1 308/134/1 388/47/1 387/54/1
f 308/134/1 309/177/1 389/25/1 388/47/1
f 309/177/1 310/174/1 390/24/1 389/25/1
f 310/174/1 301/145/1 381/81/1 390/24/1
f 311/157/1 312/178/1 392/102/1 391/110/1
f 312/178/1 313/179/1 393/111/1 392/102/1
f 313/179/1 314/168/1 394/112/1 393/111/1
f 314/168/1 315/180/1 395/63/1 394/112/1
f 315/180/1 316/181/1 396/93/1 395/63/1
f 316/181/1 317/182/1 397/113/1 396/93/1
f 317/182/1 318/183/1 398/114/1 397/113/1
f 318/183/1 319/184/1 399/115/1 398/114/1
f 319/184/1 320/185/1 400/24/1 399/115/1
f 320/185/1 311/157/1 391/110/1 400/24/1
f 401/128/2 402/127/2 403/129/2 404/130/2 405/131/2 406/132/2 407/133/2 408/134/2 409/135/2 410/136/2
f 411/124/2 412/120/2 413/121/2 414/137/2 415/138/2 416/139/2 417/140/2 418/141/2 419/142/2 420/143/2
f 421/145/2 422/144/2 423/146/2 424/147/2 425/148/2 426/118/2 427/149/2 428/150/2 429/142/2 430/143/2
f 431/152/2 432/151/2 433/153/2 434/154/2 435/155/2 436/156/2 437/125/2 438/122/2 439/116/2 440/117/2
f 441/157/1 450/165/1 449/164/1 448/163/1 447/162/1 446/156/1 445/161/1 444/160/1 443/159/1 442/158/1
f 451/128/1 460/174/1 459/173/1 458/172/1 457/171/1 456/170/1 455/169/1 454/168/1 453/167/1 452/166/1
f 461/145/1 470/174/1 469/177/1 468/134/1 467/176/1 466/118/1 465/119/1 464/123/1 463/126/1 462/175/1
f 471/157/1 480/185/1 479/184/1 478/183/1 477/182/1 476/181/1 475/180/1 474/168/1 473/179/1 472/178/1
f 253/121/9 254/137/4 414/137/4 413/121/9
f 307/176/8 306/118/11 466/118/11 467/176/8
f 280/117/10 271/152/5 431/152/5 440/117/10
f 254/137/4 255/138/3 415/138/3 414/137/4
f 308/134/7 307/176/8 467/176/8 468/134/7
f 282/158/6 281/157/5 441/157/5 442/158/6
f 255/138/3 256/139/11 416/139/11 415/138/3
f 309/177/12 308/134/7 468/134/7 469/177/12
f 283/159/9 282/158/6 442/158/6 443/159/9
f 256/139/11 257/140/8 417/140/8 416/139/11
f 310/174/10 309/177/12 469/177/12 470/174/10
f 284/160/4 283/159/9 443/159/9 444/160/4
f 257/140/8 258/141/7 418/141/7 417/140/8
f 301/145/5 310/174/10 470/174/10 461/145/5
f 285/161/3 284/160/4 444/160/4 445/161/3
f 258/141/7 259/142/12 419/142/12 418/141/7
f 312/178/6 311/157/5 471/157/5 472/178/6
f 286/156/11 285/161/3 445/161/3 446/156/11
f 259/142/12 260/143/10 420/143/10 419/142/12
f 313/179/9 312/178/6 472/178/6 473/179/9
f 287/162/8 286/156/11 446/156/11 447/162/8
f 260/143/10 251/124/5 411/124/5 420/143/10
f 314/168/4 313/179/9 473/179/9 474/168/4
f 288/163/7 287/162/8 447/162/8 448/163/7
f 261/145/5 262/144/6 422/144/6 421/145/5
f 315/180/3 314/168/4 474/168/4 475/180/3
f 289/164/12 288/163/7 448/163/7 449/164/12
f 262/144/6 263/146/9 423/146/9 422/144/6
f 316/181/11 315/180/3 475/180/3 476/181/11
f 290/165/10 289/164/12 449/164/12 450/165/10
f 263/146/9 264/147/4 424/147/4 423/146/9
f 317/182/8 316/181/11 476/181/11 477/182/8
f 281/157/5 290/165/10 450/165/10 441/157/5
f 264/147/4 265/148/3 425/148/3 424/147/4
f 318/183/7 317/182/8 477/182/8 478/183/7
f 292/166/6 291/128/5 451/128/5 452/166/6
f 265/148/3 266/118/11 426/118/11 425/148/3
f 319/184/12 318/183/7 478/183/7 479/184/12
f 293/167/9 292/166/6 452/166/6 453/167/9
f 266/118/11 267/149/8 427/149/8 426/118/11
f 320/185/10 319/184/12 479/184/12 480/185/10
f 294/168/4 293/167/9 453/167/9 454/168/4
f 267/149/8 268/150/7 428/150/7 427/149/8
f 241/128/5 242/127/6 402/127/6 401/128/5
f 311/157/5 320/185/10 480/185/10 471/157/5
f 295/169/3 294/168/4 454/168/4 455/169/3
f 268/150/7 269/142/12 429/142/12 428/150/7
f 242/127/6 243/129/9 403/129/9 402/127/6
f 296/170/11 295/169/3 455/169/3 456/170/11
f 269/142/12 270/143/10 430/143/10 429/142/12
f 243/129/9 244/130/4 404/130/4 403/129/9
f 297/171/8 296/170/11 456/170/11 457/171/8
f 270/143/10 261/145/5 421/145/5 430/143/10
f 244/130/4 245/131/3 405/131/3 404/130/4
f 298/172/7 297/171/8 457/171/8 458/172/7
f 271/152/5 272/151/6 432/151/6 431/152/5
f 245/131/3 246/132/11 406/132/11 405/131/3
f 299/173/12 298/172/7 458/172/7 459/173/12
f 272/151/6 273/153/9 433/153/9 432/151/6
f 246/132/11 247/133/8 407/133/8 406/132/11
f 300/174/10 299/173/12 459/173/12 460/174/10
f 273/153/9 274/154/4 434/154/4 433/153/9
f 247/133/8 248/134/7 408/134/7 407/133/8
f 291/128/5 300/174/10 460/174/10 451/128/5
f 274/154/4 275/155/3 435/155/3 434/154/4
f 248/134/7 249/135/12 409/135/12 408/134/7
f 302/175/6 301/145/5 461/145/5 462/175/6
f 275/155/3 276/156/11 436/156/11 435/155/3
f 249/135/12 250/136/10 410/136/10 409/135/12
f 303/126/9 302/175/6 462/175/6 463/126/9
f 276/156/11 277/125/8 437/125/8 436/156/11
f 250/136/10 241/128/5 401/128/5 410/136/10
f 161/35/5 162/30/6 482/186/6 481/187/5
f 4/26/6 483/32/5 2/188/5 484/189/6
f 162/30/6 163/12/9 485/190/9 482/186/6
f 6/9/9 4/26/6 484/189/6 486/191/9
f 163/12/9 164/4/4 487/192/4 485/190/9
f 8/10/4 6/9/9 486/191/9 488/193/4
f 164/4/4 165/3/3 489/194/3 487/192/4
f 10/34/3 8/10/4 488/193/4 490/195/3
f 165/3/3 166/31/11 491/196/11 489/194/3
f 12/29/11 10/34/3 490/195/3 492/197/11
f 166/31/11 167/23/8 493/198/8 491/196/11
f 14/11/8 12/29/11 492/197/11 494/199/8
f 167/23/8 168/8/7 495/200/7 493/198/8
f 16/1/7 14/11/8 494/199/8 496/201/7
f 168/8/7 169/7/12 497/202/12 495/200/7
f 18/2/12 16/1/7 496/201/7 498/203/12
f 483/5/5 20/6/10 499/204/10 2/205/5
f 20/6/10 18/2/12 498/203/12 499/204/10
f 169/7/12 170/39/10 500/206/10 497/202/12
f 170/39/10 161/38/5 481/207/5 500/206/10
f 171/35/5 172/30/6 502/186/6 501/187/5
f 24/26/6 503/32/5 22/188/5 504/189/6
f 172/30/6 173/12/9 505/190/9 502/186/6
f 26/9/9 24/26/6 504/189/6 506/191/9
f 173/12/9 174/4/4 507/192/4 505/190/9
f 28/10/4 26/9/9 506/191/9 508/193/4
f 174/4/4 175/3/3 509/194/3 507/192/4
f 30/34/3 28/10/4 508/193/4 510/195/3
f 175/3/3 176/31/11 511/196/11 509/194/3
f 32/29/11 30/34/3 510/195/3 512/197/11
f 176/31/11 177/23/8 513/198/8 511/196/11
f 34/11/8 32/29/11 512/197/11 514/199/8
f 177/23/8 178/8/7 515/200/7 513/198/8
f 36/1/7 34/11/8 514/199/8 516/201/7
f 178/8/7 179/7/12 517/202/12 515/200/7
f 38/2/12 36/1/7 516/201/7 518/203/12
f 503/5/5 40/6/10 519/204/10 22/205/5
f 40/6/10 38/2/12 518/203/12 519/204/10
f 179/7/12 180/39/10 520/206/10 517/202/12
f 180/39/10 171/38/5 501/207/5 520/206/10
f 181/35/5 182/30/6 522/186/6 521/187/5
f 44/26/6 523/32/5 42/188/5 524/189/6
f 182/30/6 183/12/9 525/190/9 522/186/6
f 46/9/9 44/26/6 524/189/6 526/191/9
f 183/12/9 184/4/4 527/192/4 525/190/9
f 48/10/4 46/9/9 526/191/9 528/193/4
f 184/4/4 185/3/3 529/194/3 527/192/4
f 50/34/3 48/10/4 528/193/4 530/195/3
f 185/3/3 186/31/11 531/196/11 529/194/3
f 52/29/11 50/34/3 530/195/3 532/197/11
f 186/31/11 187/23/8 533/198/8 531/196/11
f 54/11/8 52/29/11 532/197/11 534/199/8
f 187/23/8 188/8/7 535/200/7 533/198/8
f 56/1/7 54/11/8 534/199/8 536/201/7
f 188/8/7 189/7/12 537/202/12 535/200/7
f 58/2/12 56/1/7 536/201/7 538/203/12
f 523/5/5 60/6/10 539/204/10 42/205/5
f 60/6/10 58/2/12 538/203/12 539/204/10
f 189/7/12 190/39/10 540/206/10 537/202/12
f 190/39/10 181/38/5 521/207/5 540/206/10
f 191/35/5 192/30/6 542/186/6 541/187/5
f 64/26/6 543/32/5 62/188/5 544/189/6
f 192/30/6 193/12/9 545/190/9 542/186/6
f 66/9/9 64/26/6 544/189/6 546/191/9
f 193/12/9 194/4/4 547/192/4 545/190/9
f 68/10/4 66/9/9 546/191/9 548/193/4
f 194/4/4 195/3/3 549/194/3 547/192/4
f 70/34/3 68/10/4 548/193/4 550/195/3
f 195/3/3 196/31/11 551/196/11 549/194/3
f 72/29/11 70/34/3 550/195/3 552/197/11
f 196/31/11 197/23/8 553/198/8 551/196/11
f 74/11/8 72/29/11 552/197/11 554/199/8
f 197/23/8 198/8/7 555/200/7 553/198/8
f 76/1/7 74/11/8 554/199/8 556/201/7
f 198/8/7 199/7/12 557/202/12 555/200/7
f 78/2/12 76/1/7 556/201/7 558/203/12
f 543/5/5 80/6/10 559/204/10 62/205/5
f 80/6/10 78/2/12 558/203/12 559/204/10
f 199/7/12 200/39/10 560/206/10 557/202/12
f 200/39/10 191/38/5 541/207/5 560/206/10
f 202/51/6 561/52/5 201/187/5 562/186/6
f 563/32/5 564/49/6 84/189/6 82/188/5
f 203/48/9 202/51/6 562/186/6 565/190/9
f 564/49/6 566/9/9 86/191/9 84/189/6
f 204/46/4 203/48/9 565/190/9 567/192/4
f 566/9/9 568/10/4 88/193/4 86/191/9
f 205/41/3 204/46/4 567/192/4 569/194/3
f 568/10/4 570/34/3 90/195/3 88/193/4
f 206/40/11 205/41/3 569/194/3 571/196/11
f 570/34/3 572/29/11 92/197/11 90/195/3
f 207/33/8 206/40/11 571/196/11 573/198/8
f 572/29/11 574/11/8 94/199/8 92/197/11
f 208/27/7 207/33/8 573/198/8 575/200/7
f 574/11/8 576/1/7 96/201/7 94/199/8
f 209/28/12 208/27/7 575/200/7 577/202/12
f 576/1/7 578/2/12 98/203/12 96/201/7
f 578/2/12 100/6/10 579/204/10 98/203/12
f 100/6/10 563/5/5 82/205/5 579/204/10
f 210/44/10 209/28/12 577/202/12 580/206/10
f 561/45/5 210/44/10 580/206/10 201/207/5
f 212/51/6 581/52/5 211/187/5 582/186/6
f 583/32/5 584/49/6 104/189/6 102/188/5
f 213/48/9 212/51/6 582/186/6 585/190/9
f 584/49/6 586/9/9 106/191/9 104/189/6
f 214/46/4 213/48/9 585/190/9 587/192/4
f 586/9/9 588/10/4 108/193/4 106/191/9
f 215/41/3 214/46/4 587/192/4 589/194/3
f 588/10/4 590/34/3 110/195/3 108/193/4
f 216/40/11 215/41/3 589/194/3 591/196/11
f 590/34/3 592/29/11 112/197/11 110/195/3
f 217/33/8 216/40/11 591/196/11 593/198/8
f 592/29/11 594/11/8 114/199/8 112/197/11
f 218/27/7 217/33/8 593/198/8 595/200/7
f 594/11/8 596/1/7 116/201/7 114/199/8
f 219/28/12 218/27/7 595/200/7 597/202/12
f 596/1/7 598/2/12 118/203/12 116/201/7
f 598/2/12 120/6/10 599/204/10 118/203/12
f 120/6/10 583/5/5 102/205/5 599/204/10
f 220/44/10 219/28/12 597/202/12 600/206/10
f 581/45/5 220/44/10 600/206/10 211/207/5
f 222/51/6 601/52/5 221/187/5 602/186/6
f 603/32/5 604/49/6 124/189/6 122/188/5
f 223/48/9 222/51/6 602/186/6 605/190/9
f 604/49/6 606/9/9 126/191/9 124/189/6
f 224/46/4 223/48/9 605/190/9 607/192/4
f 606/9/9 608/10/4 128/193/4 126/191/9
f 225/41/3 224/46/4 607/192/4 609/194/3
f 608/10/4 610/34/3 130/195/3 128/193/4
f 226/40/11 225/41/3 609/194/3 611/196/11
f 610/34/3 612/29/11 132/197/11 130/195/3
f 227/33/8 226/40/11 611/196/11 613/198/8
f 612/29/11 614/11/8 134/199/8 132/197/11
f 228/27/7 227/33/8 613/198/8 615/200/7
f 614/11/8 616/1/7 136/201/7 134/199/8
f 229/28/12 228/27/7 615/200/7 617/202/12
f 616/1/7 618/2/12 138/203/12 136/201/7
f 618/2/12 140/6/10 619/204/10 138/203/12
f 140/6/10 603/5/5 122/205/5 619/204/10
f 230/44/10 229/28/12 617/202/12 620/206/10
f 601/45/5 230/44/10 620/206/10 221/207/5
f 232/51/6 621/52/5 231/187/5 622/186/6
f 623/32/5 624/49/6 144/189/6 142/188/5
f 233/48/9 232/51/6 622/186/6 625/190/9
f 624/49/6 626/9/9 146/191/9 144/189/6
f 234/46/4 233/48/9 625/190/9 627/192/4
f 626/9/9 628/10/4 148/193/4 146/191/9
f 235/41/3 234/46/4 627/192/4 629/194/3
f 628/10/4 630/34/3 150/195/3 148/193/4
f 236/40/11 235/41/3 629/194/3 631/196/11
f 630/34/3 632/29/11 152/197/11 150/195/3
f 237/33/8 236/40/11 631/196/11 633/198/8
f 632/29/11 634/11/8 154/199/8 152/197/11
f 238/27/7 237/33/8 633/198/8 635/200/7
f 634/11/8 636/1/7 156/201/7 154/199/8
f 239/28/12 238/27/7 635/200/7 637/202/12
f 636/1/7 638/2/12 158/203/12 156/201/7
f 638/2/12 160/6/10 639/204/10 158/203/12
f 160/6/10 623/5/5 142/205/5 639/204/10
f 240/44/10 239/28/12 637/202/12 640/206/10
f 621/45/5 240/44/10 640/206/10 231/207/5
f 641/35/13 642/32/13 644/26/13 643/30/13
f 643/30/14 644/26/14 646/9/14 645/12/14
f 645/12/15 646/9/15 648/10/15 647/4/15
f 647/4/16 648/10/16 650/34/16 649/3/16
f 649/3/17 650/34/17 652/29/17 651/31/17
f 651/31/18 652/29/18 654/11/18 653/23/18
f 653/23/19 654/11/19 656/1/19 655/8/19
f 655/8/20 656/1/20 658/2/20 657/7/20
f 657/7/21 658/2/21 660/6/21 659/39/21
f 659/39/22 660/6/22 642/5/22 641/38/22
f 661/35/13 662/32/13 664/26/13 663/30/13
f 663/30/14 664/26/14 666/9/14 665/12/14
f 665/12/15 666/9/15 668/10/15 667/4/15
f 667/4/16 668/10/16 670/34/16 669/3/16
f 669/3/17 670/34/17 672/29/17 671/31/17
f 671/31/18 672/29/18 674/11/18 673/23/18
f 673/23/19 674/11/19 676/1/19 675/8/19
f 675/8/20 676/1/20 678/2/20 677/7/20
f 677/7/21 678/2/21 680/6/21 679/39/21
f 679/39/22 680/6/22 662/5/22 661/38/22
f 681/35/13 682/32/13 684/26/13 683/30/13
f 683/30/14 684/26/14 686/9/14 685/12/14
f 685/12/15 686/9/15 688/10/15 687/4/15
f 687/4/16 688/10/16 690/34/16 689/3/16
f 689/3/17 690/34/17 692/29/17 691/31/17
f 691/31/18 692/29/18 694/11/18 693/23/18
f 693/23/19 694/11/19 696/1/19 695/8/19
f 695/8/20 696/1/20 698/2/20 697/7/20
f 697/7/21 698/2/21 700/6/21 699/39/21
f 699/39/22 700/6/22 682/5/22 681/38/22
f 701/35/13 702/32/13 704/26/13 703/30/13
f 703/30/14 704/26/14 706/9/14 705/12/14
f 705/12/15 706/9/15 708/10/15 707/4/15
f 707/4/16 708/10/16 710/34/16 709/3/16
f 709/3/17 710/34/17 712/29/17 711/31/17
f 711/31/18 712/29/18 714/11/18 713/23/18
f 713/23/19 714/11/19 716/1/19 715/8/19
f 715/8/20 716/1/20 718/2/20 717/7/20
f 717/7/21 718/2/21 720/6/21 719/39/21
f 719/39/22 720/6/22 702/5/22 701/38/22
f 721/52/13 723/51/13 724/49/13 722/32/13
f 723/51/14 725/48/14 726/9/14 724/49/14
f 725/48/15 727/46/15 728/10/15 726/9/15
f 727/46/16 729/41/16 730/34/16 728/10/16
f 729/41/17 731/40/17 732/29/17 730/34/17
f 731/40/18 733/33/18 734/11/18 732/29/18
f 733/33/19 735/27/19 736/1/19 734/11/19
f 735/27/20 737/28/20 738/2/20 736/1/20
f 737/28/21 739/44/21 740/6/21 738/2/21
f 739/44/22 721/45/22 722/5/22 740/6/22
f 741/52/13 743/51/13 744/49/13 742/32/13
f 743/51/14 745/48/14 746/9/14 744/49/14
f 745/48/15 747/46/15 748/10/15 746/9/15
f 747/46/16 749/41/16 750/34/16 748/10/16
f 749/41/17 751/40/17 752/29/17 750/34/17
f 751/40/18 753/33/18 754/11/18 752/29/18
f 753/33/19 755/27/19 756/1/19 754/11/19
f 755/27/20 757/28/20 758/2/20 756/1/20
f 757/28/21 759/44/21 760/6/21 758/2/21
f 759/44/22 741/45/22 742/5/22 760/6/22
f 761/52/13 763/51/13 764/49/13 762/32/13
f 763/51/14 765/48/14 766/9/14 764/49/14
f 765/48/15 767/46/15 768/10/15 766/9/15
f 767/46/16 769/41/16 770/34/16 768/10/16
f 769/41/17 771/40/17 772/29/17 770/34/17
f 771/40/18 773/33/18 774/11/18 772/29/18
f 773/33/19 775/27/19 776/1/19 774/11/19
f 775/27/20 777/28/20 778/2/20 776/1/20
f 777/28/21 779/44/21 780/6/21 778/2/21
f 779/44/22 761/45/22 762/5/22 780/6/22
f 781/52/13 783/51/13 784/49/13 782/32/13
f 783/51/14 785/48/14 786/9/14 784/49/14
f 785/48/15 787/46/15 788/10/15 786/9/15
f 787/46/16 789/41/16 790/34/16 788/10/16
f 789/41/17 791/40/17 792/29/17 790/34/17
f 791/40/18 793/33/18 794/11/18 792/29/18
f 793/33/19 795/27/19 796/1/19 794/11/19
f 795/27/20 797/28/20 798/2/20 796/1/20
f 797/28/21 799/44/21 800/6/21 798/2/21
f 799/44/22 781/45/22 782/5/22 800/6/22
f 219/28/1 220/44/1 759/44/1 757/28/1
f 68/10/1 70/34/1 710/34/1 708/10/1
f 20/6/1 483/5/1 642/5/1 660/6/1
f 220/44/1 581/45/1 741/45/1 759/44/1
f 196/31/2 195/3/2 709/3/2 711/31/2
f 18/2/1 20/6/1 660/6/1 658/2/1
f 601/52/1 222/51/1 763/51/1 761/52/1
f 70/34/1 72/29/1 712/29/1 710/34/1
f 170/39/2 169/7/2 657/7/2 659/39/2
f 604/49/2 603/32/2 762/32/2 764/49/2
f 197/23/2 196/31/2 711/31/2 713/23/2
f 161/38/2 170/39/2 659/39/2 641/38/2
f 222/51/1 223/48/1 765/48/1 763/51/1
f 72/29/1 74/11/1 714/11/1 712/29/1
f 172/30/2 171/35/2 661/35/2 663/30/2
f 606/9/2 604/49/2 764/49/2 766/9/2
f 198/8/2 197/23/2 713/23/2 715/8/2
f 503/32/1 24/26/1 664/26/1 662/32/1
f 223/48/1 224/46/1 767/46/1 765/48/1
f 74/11/1 76/1/1 716/1/1 714/11/1
f 173/12/2 172/30/2 663/30/2 665/12/2
f 608/10/2 606/9/2 766/9/2 768/10/2
f 199/7/2 198/8/2 715/8/2 717/7/2
f 24/26/1 26/9/1 666/9/1 664/26/1
f 224/46/1 225/41/1 769/41/1 767/46/1
f 76/1/1 78/2/1 718/2/1 716/1/1
f 174/4/2 173/12/2 665/12/2 667/4/2
f 610/34/2 608/10/2 768/10/2 770/34/2
f 80/6/1 543/5/1 702/5/1 720/6/1
f 26/9/1 28/10/1 668/10/1 666/9/1
f 225/41/1 226/40/1 771/40/1 769/41/1
f 78/2/1 80/6/1 720/6/1 718/2/1
f 175/3/2 174/4/2 667/4/2 669/3/2
f 612/29/2 610/34/2 770/34/2 772/29/2
f 200/39/2 199/7/2 717/7/2 719/39/2
f 28/10/1 30/34/1 670/34/1 668/10/1
f 226/40/1 227/33/1 773/33/1 771/40/1
f 191/38/2 200/39/2 719/39/2 701/38/2
f 176/31/2 175/3/2 669/3/2 671/31/2
f 614/11/2 612/29/2 772/29/2 774/11/2
f 561/52/1 202/51/1 723/51/1 721/52/1
f 30/34/1 32/29/1 672/29/1 670/34/1
f 227/33/1 228/27/1 775/27/1 773/33/1
f 564/49/2 563/32/2 722/32/2 724/49/2
f 177/23/2 176/31/2 671/31/2 673/23/2
f 616/1/2 614/11/2 774/11/2 776/1/2
f 202/51/1 203/48/1 725/48/1 723/51/1
f 32/29/1 34/11/1 674/11/1 672/29/1
f 228/27/1 229/28/1 777/28/1 775/27/1
f 566/9/2 564/49/2 724/49/2 726/9/2
f 178/8/2 177/23/2 673/23/2 675/8/2
f 618/2/2 616/1/2 776/1/2 778/2/2
f 203/48/1 204/46/1 727/46/1 725/48/1
f 34/11/1 36/1/1 676/1/1 674/11/1
f 140/6/2 618/2/2 778/2/2 780/6/2
f 568/10/2 566/9/2 726/9/2 728/10/2
f 179/7/2 178/8/2 675/8/2 677/7/2
f 603/5/2 140/6/2 780/6/2 762/5/2
f 204/46/1 205/41/1 729/41/1 727/46/1
f 36/1/1 38/2/1 678/2/1 676/1/1
f 229/28/1 230/44/1 779/44/1 777/28/1
f 570/34/2 568/10/2 728/10/2 730/34/2
f 40/6/1 503/5/1 662/5/1 680/6/1
f 230/44/1 601/45/1 761/45/1 779/44/1
f 205/41/1 206/40/1 731/40/1 729/41/1
f 38/2/1 40/6/1 680/6/1 678/2/1
f 621/52/1 232/51/1 783/51/1 781/52/1
f 572/29/2 570/34/2 730/34/2 732/29/2
f 180/39/2 179/7/2 677/7/2 679/39/2
f 624/49/2 623/32/2 782/32/2 784/49/2
f 206/40/1 207/33/1 733/33/1 731/40/1
f 171/38/2 180/39/2 679/39/2 661/38/2
f 232/51/1 233/48/1 785/48/1 783/51/1
f 574/11/2 572/29/2 732/29/2 734/11/2
f 182/30/2 181/35/2 681/35/2 683/30/2
f 626/9/2 624/49/2 784/49/2 786/9/2
f 207/33/1 208/27/1 735/27/1 733/33/1
f 523/32/1 44/26/1 684/26/1 682/32/1
f 233/48/1 234/46/1 787/46/1 785/48/1
f 576/1/2 574/11/2 734/11/2 736/1/2
o Cube.004
v -0.812222 0.817166 -1.733263
v 0.712222 0.828878 -1.876738
v -0.452647 1.137618 0.832186
v -0.452647 1.137618 -0.432186
v 0.452647 1.137618 -0.432186
v 0.452647 1.137618 0.832186
v -0.452647 1.217618 0.832186
v -0.452647 1.217618 -0.432186
v 0.452647 1.217618 0.832186
v 0.452647 1.217618 -0.432186
v -0.712222 1.074232 -1.577346
v -0.712222 0.351578 -1.300231
v 0.712222 0.351578 -1.300231
v 0.712222 1.074232 -1.577346
v 0.812222 0.903412 1.776533
v -0.812222 0.903412 1.776533
v 0.812222 1.037618 1.776165
v -0.812222 1.037618 1.776165
v -0.360561 0.698542 1.438369
v 0.360561 0.698542 1.438369
v -0.712222 0.607968 -1.593333
v 0.712222 0.607968 -1.593333
v -0.452647 1.137618 0.200000
v -0.452647 1.217618 0.200000
v 0.452647 1.137618 0.200000
v 0.452647 1.217618 0.200000
v 0.812222 0.285738 -1.224301
v -0.812222 0.285738 -1.224301
v -0.812222 1.037618 0.187946
v 0.812222 1.037618 0.187946
v -0.360561 0.698542 -1.231276
v 0.360561 0.698542 -1.231276
v 0.812222 0.649746 -1.258236
v -0.812222 0.548425 -1.258236
v 0.812222 0.798542 -0.975733
v 0.812222 0.798542 1.423818
v -0.812222 0.798542 1.423818
v -0.812222 0.798542 -0.975733
v 0.360561 0.529863 -1.231276
v 0.360561 0.428542 1.438369
v -0.360561 0.428542 1.438369
v -0.360561 0.529863 -1.231276
v -0.812222 0.598948 -1.541338
v -0.812222 0.285738 -1.224964
v 0.812222 0.598948 -1.541338
v 0.812222 0.285738 -1.224964
v 0.812222 0.817166 -1.733263
v 0.812222 1.037618 -1.464259
v -0.812222 1.037618 -1.464259
v -0.712222 0.828878 -1.876738
v 0.712222 0.831319 -1.906639
v -0.712222 0.831319 -1.906639
v -0.712222 0.586727 -1.614517
v 0.712222 0.586727 -1.614517
v -0.712222 0.328998 -1.319983
v 0.712222 0.328998 -1.319983
v 0.712222 1.097436 -1.596361
v -0.712222 1.097436 -1.596361
v 0.712222 1.037618 1.876166
v 0.812222 1.137618 0.187946
v -0.812222 1.137618 0.187946
v -0.812222 1.137618 -1.500000
v -0.712222 0.928878 1.876464
v -0.712222 1.037618 1.876166
v 0.712222 0.928878 1.876464
v 0.812222 0.698542 1.438369
v -0.812222 0.698542 1.438369
v 0.812222 1.137618 -1.500000
v 0.812222 0.542801 -1.228173
v 0.812222 0.698542 -0.937826
v -0.812222 0.542801 -1.228173
v -0.812222 0.698542 -0.937826
v 0.812222 0.828878 -1.876738
v -0.812222 0.828878 -1.876738
v -0.812222 0.607968 -1.593333
v 0.812222 0.607968 -1.593333
v 0.842222 1.037618 1.776165
v 0.842222 1.037618 0.187946
v -0.842222 1.037618 0.187946
v -0.842222 1.037618 -1.464259
v -0.842222 0.903412 1.776533
v -0.842222 1.037618 1.776165
v 0.842222 0.903412 1.776533
v 0.842222 0.798542 1.423818
v -0.842222 0.798542 1.423818
v 0.842222 1.037618 -1.464259
v 0.842222 0.649746 -1.258236
v 0.842222 0.798542 -0.975733
v -0.842222 0.548425 -1.258236
v -0.842222 0.798542 -0.975733
v 0.842222 0.817166 -1.733263
v -0.842222 0.817166 -1.733263
v -0.842222 0.598948 -1.541338
v 0.842222 0.598948 -1.541338
v 0.812222 1.137618 1.875892
v -0.812222 1.137618 1.875892
v -0.812222 0.828878 1.876738
v 0.812222 0.828878 1.876738
v 0.712222 1.037701 1.906166
v -0.712222 1.037701 1.906166
v -0.712222 0.928960 1.906464
v 0.712222 0.928960 1.906464
vn -1.0000 -0.0000 -0.0000
vn -0.0000 1.0000 -0.0000
vn -0.0000 -0.0000 1.0000
vn 1.0000 -0.0000 -0.0000
vn -0.0000 -0.0000 -1.0000
vn -0.0000 -1.0000 -0.0000
vn -0.0000 -0.9585 0.2850
vn -0.0000 0.0151 0.9999
vn -0.0000 -0.8812 0.4727
vn -0.0000 -0.9993 -0.0379
vn -0.0000 -0.7527 -0.6584
vn -0.0000 0.7735 -0.6339
vn -0.0000 -0.7887 -0.6148
vn -0.0000 -0.7667 -0.6420
vn -0.0000 0.7591 -0.6510
vn -0.0000 -0.7526 -0.6585
vn -0.0000 0.6338 0.7735
vn -0.0000 -0.6584 0.7527
vn -0.0000 -0.8848 0.4660
vn -0.0000 -0.9844 -0.1757
vn -0.0000 -0.7487 0.6629
vn -0.0000 0.0027 1.0000
vn -0.0000 -0.9843 0.1766
vn -0.0000 -0.6604 -0.7509
vn -0.0000 -1.0000 0.0027
vn -0.0000 1.0000 -0.0027
vt 0.835729 0.625000
vt 0.835729 0.704510
vt 0.664271 0.625000
vt 0.664271 0.707178
vt 0.625000 0.723071
vt 0.625000 0.625000
vt 0.835729 0.545490
vt 0.664271 0.542821
vt 0.625000 0.526929
vt 0.875000 0.531250
vt 0.875000 0.625000
vt 0.875000 0.718750
vt 0.375000 0.625000
vt 0.375000 0.250000
vt 0.375000 0.500000
vt 0.625000 0.504541
vt 0.625000 0.484610
vt 0.500000 0.975546
vt 0.500000 0.637142
vt 0.625000 0.265390
vt 0.625000 0.260235
vt 0.630968 0.750596
vt 0.634422 0.737598
vt 0.500000 0.265390
vt 0.625000 0.750000
vt 0.625000 1.000000
vt 0.500000 1.000000
vt 0.500000 0.750000
vt 0.437500 0.625000
vt 0.500000 0.625000
vt 0.500000 0.755609
vt 0.500000 0.631702
vt 0.400541 0.265390
vt 0.500000 0.250000
vt 0.400541 0.484610
vt 0.500000 0.484610
vt 0.500000 0.500000
vt 0.625000 0.500000
vt 0.625000 0.250000
vt 0.625000 0.241664
vt 0.790199 0.663715
vt 0.803748 0.496858
vt 0.533986 0.600181
vt 0.474380 0.597661
vt 0.617466 0.726803
vt 0.597307 0.637922
vt 0.792914 0.797192
vt 0.683097 0.914192
vt 0.610177 0.739320
vt 0.536726 0.736392
vt 0.586764 0.931022
vt 0.609263 0.532142
vt 0.605681 0.588749
vt 0.497398 0.556434
vt 0.600069 0.509262
vt 0.639216 0.307685
vt 0.541682 0.328140
vt 0.519628 0.521178
vt 0.784604 0.804040
vt 0.700006 0.899586
s 0
f 823/208/23 803/209/23 807/209/23 824/208/23
f 825/210/24 806/211/24 895/212/24 860/213/24
f 804/214/24 805/215/24 868/216/24 862/217/24
f 823/208/24 804/214/24 862/217/24 861/218/24
f 806/211/24 803/209/24 896/219/24 895/212/24
f 824/208/24 807/209/24 809/211/24 826/210/24
f 803/209/25 806/211/25 809/211/25 807/209/25
f 825/210/26 805/215/26 810/215/26 826/210/26
f 805/215/27 804/214/27 808/214/27 810/215/27
f 828/220/28 844/221/28 846/222/28 827/220/28
f 814/223/26 802/224/26 851/224/26 857/223/26
f 819/225/23 831/226/23 842/226/23 841/225/23
f 850/227/23 811/228/23 858/228/23 852/227/23
f 865/229/26 859/230/26 899/230/26 902/229/26
f 821/231/23 850/227/23 852/227/23 853/231/23
f 898/232/29 897/233/29 867/234/29 866/235/29
f 869/236/30 871/236/30 828/220/30 827/220/30
f 806/211/26 825/210/26 826/210/26 809/211/26
f 808/214/24 824/208/24 826/210/24 810/215/24
f 803/209/24 823/208/24 861/218/24 896/219/24
f 805/215/24 825/210/24 860/213/24 868/216/24
f 804/214/23 823/208/23 824/208/23 808/214/23
f 870/237/31 872/237/31 871/236/31 869/236/31
f 820/238/28 832/239/28 870/237/28 866/235/28
f 819/225/25 820/238/25 866/235/25 867/234/25
f 832/239/24 831/226/24 872/237/24 870/237/24
f 831/226/28 819/225/28 867/234/28 872/237/28
f 839/239/32 840/238/32 841/225/32 842/226/32
f 820/238/25 819/225/25 841/225/25 840/238/25
f 831/226/27 832/239/27 839/239/27 842/226/27
f 832/239/26 820/238/26 840/238/26 839/239/26
f 821/231/33 812/240/33 844/221/33 875/241/33
f 813/242/33 822/243/33 876/244/33 846/222/33
f 802/224/34 814/223/34 868/216/34 873/245/34
f 812/240/33 813/242/33 846/222/33 844/221/33
f 811/228/34 850/227/34 874/246/34 862/247/34
f 814/223/34 811/228/34 862/247/34 868/216/34
f 850/227/35 821/231/35 875/241/35 874/246/35
f 822/243/35 802/224/35 873/245/35 876/244/35
f 853/231/36 852/227/36 851/224/36 854/243/36
f 851/224/37 852/227/37 858/228/37 857/223/37
f 855/240/38 853/231/38 854/243/38 856/242/38
f 812/240/23 821/231/23 853/231/23 855/240/23
f 802/224/26 822/243/26 854/243/26 851/224/26
f 811/228/39 814/223/39 857/223/39 858/228/39
f 813/242/40 812/240/40 855/240/40 856/242/40
f 822/243/26 813/242/26 856/242/26 854/243/26
f 844/221/23 828/220/23 871/236/23 875/241/23
f 829/248/24 849/249/24 880/249/24 879/248/24
f 876/244/26 869/236/26 827/220/26 846/222/26
f 835/250/41 833/251/41 887/251/41 888/250/41
f 817/252/26 830/253/26 860/213/26 895/212/26
f 849/249/23 829/248/23 861/218/23 862/217/23
f 818/254/23 816/255/23 897/233/23 896/219/23
f 815/256/26 817/252/26 895/212/26 898/232/26
f 836/257/26 815/256/26 898/232/26 866/235/26
f 816/255/23 837/258/23 867/234/23 897/233/23
f 829/248/23 818/254/23 896/219/23 861/218/23
f 830/253/26 848/259/26 868/216/26 860/213/26
f 833/251/26 835/250/26 870/237/26 869/236/26
f 838/260/23 834/261/23 871/236/23 872/237/23
f 835/250/26 836/257/26 866/235/26 870/237/26
f 837/258/23 838/260/23 872/237/23 867/234/23
f 848/259/26 847/262/26 873/245/26 868/216/26
f 801/263/23 849/249/23 862/217/23 874/246/23
f 843/264/23 801/263/23 874/246/23 875/241/23
f 847/262/26 845/265/26 876/244/26 873/245/26
f 834/261/23 843/264/23 875/241/23 871/236/23
f 845/265/26 833/251/26 869/236/26 876/244/26
f 892/263/23 893/264/23 889/261/23 890/260/23 885/258/23 881/255/23 882/254/23 879/248/23 880/249/23
f 891/262/26 886/259/26 878/253/26 877/252/26 883/256/26 884/257/26 888/250/26 887/251/26 894/265/26
f 843/264/42 834/261/42 889/261/42 893/264/42
f 834/261/43 838/260/43 890/260/43 889/261/43
f 816/255/44 818/254/44 882/254/44 881/255/44
f 833/251/45 845/265/45 894/265/45 887/251/45
f 836/257/28 835/250/28 888/250/28 884/257/28
f 817/252/44 815/256/44 883/256/44 877/252/44
f 838/260/28 837/258/28 885/258/28 890/260/28
f 815/256/29 836/257/29 884/257/29 883/256/29
f 847/262/34 848/259/34 886/259/34 891/262/34
f 837/258/29 816/255/29 881/255/29 885/258/29
f 849/249/34 801/263/34 892/263/34 880/249/34
f 818/254/24 829/248/24 879/248/24 882/254/24
f 801/263/46 843/264/46 893/264/46 892/263/46
f 848/259/24 830/253/24 878/253/24 886/259/24
f 830/253/24 817/252/24 877/252/24 878/253/24
f 845/265/46 847/262/46 891/262/46 894/265/46
f 864/266/44 859/230/44 895/212/44 896/219/44
f 863/267/44 864/266/44 896/219/44 897/233/44
f 865/229/44 863/267/44 897/233/44 898/232/44
f 859/230/44 865/229/44 898/232/44 895/212/44
f 900/266/44 901/267/44 902/229/44 899/230/44
f 864/266/23 863/267/23 901/267/23 900/266/23
f 863/267/47 865/229/47 902/229/47 901/267/47
f 859/230/48 864/266/48 900/266/48 899/230/48
